<svg width="168" height="68" viewBox="0 0 168 68" fill="none" xmlns="http://www.w3.org/2000/svg">
<path d="M10.3035 17.4062C16.1683 16.4469 21.8587 19.8262 23.8209 25.4512C24.3224 26.8902 24.5404 28.4163 24.4968 29.9425C22.2512 27.6751 20.0055 25.4076 17.7599 23.1184C16.4081 24.4919 15.0782 25.8437 13.7265 27.2172C13.7265 26.3887 13.7265 25.5602 13.7265 24.7099H8.88634C8.88634 27.1082 8.88634 29.5065 8.88634 31.9047C7.92704 32.8858 6.94593 33.8669 5.96483 34.8698C6.92413 34.8698 7.90523 34.8698 8.86454 34.8698C8.86454 36.9629 8.86454 39.0341 8.86454 41.1271C6.50989 40.4512 4.39506 39.0777 2.80349 37.2027C-1.49157 32.0355 -0.772094 24.3611 4.41686 20.0661C6.13924 18.6707 8.14506 17.755 10.3035 17.4062ZM119.773 22.4861C122.193 22.1155 124.853 22.7913 126.575 24.5573C129.148 27.1082 129.257 31.6431 126.859 34.3466C124.09 37.5733 118.552 37.7259 115.565 34.7172C113.254 32.4498 112.862 28.569 114.584 25.8437C115.761 24.0341 117.636 22.7913 119.773 22.4861ZM120.122 24.7099C118.901 24.928 117.833 25.6474 117.135 26.6722C115.696 28.7216 115.979 31.7957 117.876 33.4527C119.577 35.1097 122.564 35.1097 124.286 33.4745C126.445 31.5777 126.466 27.8713 124.395 25.9309C123.283 24.819 121.626 24.4047 120.122 24.7099ZM138.785 22.4861C141.139 22.0937 143.69 22.7041 145.456 24.3393C147.898 26.585 148.356 30.5748 146.633 33.3873C145.652 34.9789 144.104 36.1126 142.295 36.5704C140.071 37.1591 137.542 36.832 135.645 35.5021C134.053 34.3902 132.985 32.6678 132.702 30.7492C132.418 28.9396 132.833 27.0864 133.857 25.5602C135.013 23.9251 136.779 22.8132 138.785 22.4861ZM139.591 24.6445C138.458 24.7536 137.411 25.2986 136.648 26.1489C134.773 28.1329 134.882 31.5995 136.91 33.4309C138.61 35.1097 141.597 35.1315 143.341 33.4963C145.369 31.7303 145.565 28.3727 143.843 26.3233C142.796 25.0806 141.205 24.4483 139.591 24.6445ZM27.2657 22.6169C28.8573 22.6169 30.4488 22.6169 32.0622 22.6169C33.3049 22.6387 34.6131 22.835 35.6596 23.5544C37.2512 24.6227 37.5128 27.1954 36.1393 28.5472C35.6814 28.9614 35.1581 29.2884 34.5695 29.5065C35.507 29.7899 36.4663 30.2695 36.9895 31.1416C37.7526 32.428 37.4256 34.2158 36.2919 35.2187C35.0927 36.287 33.4358 36.6358 31.866 36.6794C30.3398 36.7012 28.7919 36.6794 27.2657 36.6794C27.2657 31.9701 27.2657 27.2826 27.2657 22.6169ZM29.7512 24.8844C29.7512 26.1489 29.7512 27.4352 29.7512 28.6998C30.8631 28.6562 32.0404 28.8306 33.1087 28.4381C33.9154 28.1547 34.5259 27.348 34.4387 26.4541C34.3951 25.7565 33.7846 25.2114 33.1305 25.037C32.0186 24.7754 30.8631 24.928 29.7512 24.8844ZM29.7512 30.4876C29.7512 31.7739 29.7512 33.082 29.7512 34.3684C31.1247 34.303 32.6073 34.6082 33.8718 33.9323C34.8965 33.4091 35.0491 31.7739 34.068 31.1198C32.7817 30.2913 31.1901 30.5094 29.7512 30.4876ZM42.3093 22.6169C43.1378 22.6169 43.9663 22.6169 44.7948 22.6169V30.5966C44.7948 31.5777 44.882 32.6024 45.4488 33.4309C45.9285 34.1504 46.7788 34.521 47.6291 34.5864C48.6756 34.6954 49.8529 34.521 50.616 33.7361C51.3791 32.9512 51.5535 31.7957 51.5753 30.7492C51.5753 28.0239 51.5753 25.2986 51.5753 22.5951H54.0608C54.0608 25.364 54.0608 28.1329 54.0608 30.9018C54.0608 32.4716 53.6683 34.1504 52.5346 35.3059C51.4009 36.4614 49.7221 36.8975 48.1305 36.8757C46.539 36.8539 44.8602 36.4614 43.7701 35.2623C42.68 34.0631 42.3311 32.428 42.3093 30.88C42.3093 28.1547 42.3093 25.3858 42.3093 22.6169ZM59.7512 22.5951C60.5797 22.5733 61.4081 22.5951 62.2366 22.5951V36.6358H59.7512C59.7512 31.9483 59.7512 27.2826 59.7512 22.5951ZM68.1015 22.5951C68.9299 22.5951 69.7584 22.5951 70.5869 22.5951C70.5869 26.5195 70.5869 30.444 70.5869 34.3684C72.8108 34.3684 75.0346 34.3684 77.2584 34.3684C77.2584 35.1315 77.2584 35.8727 77.2584 36.6358H68.1015C68.1015 31.9701 68.1015 27.3044 68.1015 22.5951ZM81.3137 22.6169C83.1451 22.6169 84.9983 22.5951 86.8297 22.6169C88.9445 22.6387 91.1029 23.4672 92.5201 25.0806C94.6131 27.4352 94.7221 31.2725 92.7817 33.7797C91.4081 35.6111 89.0971 36.614 86.8297 36.6358C84.9983 36.6576 83.1451 36.6358 81.3137 36.6358C81.3355 31.9701 81.3355 27.2826 81.3137 22.6169ZM83.8209 34.3684C84.8238 34.3684 85.8268 34.3902 86.8297 34.3684C88.5739 34.3466 90.1654 33.3655 90.9721 31.8393C92.084 29.7463 91.3645 26.803 89.2715 25.6038C87.6363 24.5791 85.6305 24.9716 83.8209 24.9062C83.8427 28.0457 83.8427 31.207 83.8209 34.3684ZM98.4067 22.6169H109.722C109.7 22.9222 109.809 23.271 109.591 23.5544C107.04 27.1736 104.511 30.7928 101.96 34.3902H109.504C109.504 35.1533 109.504 35.9164 109.504 36.6576H97.8616C97.8834 36.3524 97.7744 36.0036 97.9706 35.7419C100.5 32.1227 103.029 28.5254 105.558 24.8844C103.16 24.8844 100.783 24.8844 98.3849 24.8844V22.5951M152.804 22.5515C153.174 22.5515 153.545 22.5515 153.915 22.5515C155.878 25.9527 157.818 29.3756 159.78 32.7768C161.677 29.3756 163.596 25.9745 165.492 22.5515C165.863 22.5515 166.234 22.5515 166.604 22.5515C166.735 27.239 166.866 31.9483 166.997 36.6576H164.555C164.533 33.9759 164.511 31.2725 164.49 28.5908C163.029 31.3161 161.59 34.0414 160.129 36.7666H159.257C157.796 34.085 156.335 31.4033 154.875 28.7216C154.853 31.3597 154.853 33.9977 154.831 36.6576C154.024 36.6576 153.218 36.6576 152.411 36.6576C152.52 31.9483 152.651 27.2608 152.804 22.5515Z" fill="white"/>
<path d="M28.5106 49.292C28.4169 49.0051 28.2933 48.748 28.1399 48.5207C27.9893 48.2906 27.8089 48.0945 27.5987 47.9326C27.3913 47.7707 27.1555 47.6471 26.8913 47.5619C26.6271 47.4767 26.3373 47.434 26.022 47.434C25.5049 47.434 25.0348 47.5676 24.6115 47.8346C24.1882 48.1017 23.8515 48.4951 23.6015 49.015C23.3515 49.5349 23.2265 50.1727 23.2265 50.9284C23.2265 51.684 23.3529 52.3218 23.6058 52.8417C23.8586 53.3616 24.201 53.7551 24.6328 54.0221C25.0646 54.2892 25.5504 54.4227 26.0902 54.4227C26.5902 54.4227 27.0305 54.3161 27.4112 54.1031C27.7947 53.8872 28.093 53.5832 28.3061 53.1911C28.522 52.7963 28.6299 52.3318 28.6299 51.7977L28.9538 51.8659H26.3288V50.9284H29.6527V51.8659C29.6527 52.5846 29.4993 53.2096 29.1924 53.7409C28.8885 54.2721 28.468 54.684 27.9311 54.9767C27.397 55.2664 26.7833 55.4113 26.0902 55.4113C25.3174 55.4113 24.6385 55.2295 24.0532 54.8659C23.4708 54.5022 23.0163 53.9852 22.6896 53.3147C22.3657 52.6443 22.2038 51.8488 22.2038 50.9284C22.2038 50.238 22.2961 49.6173 22.4808 49.0661C22.6683 48.5122 22.9325 48.0406 23.2734 47.6514C23.6143 47.2622 24.0177 46.9639 24.4836 46.7565C24.9495 46.5491 25.4623 46.4454 26.022 46.4454C26.4822 46.4454 26.9112 46.515 27.3089 46.6542C27.7095 46.7906 28.066 46.9852 28.3785 47.238C28.6939 47.488 28.9566 47.7877 29.1669 48.1372C29.3771 48.4838 29.522 48.8687 29.6015 49.292H28.5106ZM34.0706 55.4284C33.44 55.4284 32.8959 55.2892 32.4385 55.0107C31.984 54.7295 31.6331 54.3374 31.386 53.8346C31.1417 53.3289 31.0195 52.7409 31.0195 52.0704C31.0195 51.3999 31.1417 50.809 31.386 50.2977C31.6331 49.7835 31.9769 49.3829 32.4172 49.096C32.8604 48.8062 33.3775 48.6613 33.9684 48.6613C34.3093 48.6613 34.6459 48.7181 34.9783 48.8318C35.3107 48.9454 35.6132 49.1301 35.886 49.3857C36.1587 49.6386 36.376 49.9738 36.538 50.3914C36.6999 50.809 36.7809 51.3232 36.7809 51.934V52.3602H31.7354V51.4909H35.7581C35.7581 51.1215 35.6843 50.792 35.5365 50.5022C35.3917 50.2124 35.1843 49.9838 34.9144 49.8161C34.6473 49.6485 34.332 49.5647 33.9684 49.5647C33.5678 49.5647 33.2212 49.6642 32.9286 49.863C32.6388 50.059 32.4158 50.3147 32.2596 50.6301C32.1033 50.9454 32.0252 51.2835 32.0252 51.6443V52.2238C32.0252 52.7181 32.1104 53.1372 32.2809 53.4809C32.4542 53.8218 32.6942 54.0818 33.001 54.2607C33.3078 54.4369 33.6644 54.5249 34.0706 54.5249C34.3348 54.5249 34.5735 54.488 34.7865 54.4142C35.0025 54.3374 35.1885 54.2238 35.3448 54.0732C35.501 53.9198 35.6218 53.7295 35.707 53.5022L36.6786 53.7749C36.5763 54.1045 36.4044 54.3943 36.163 54.6443C35.9215 54.8914 35.6232 55.0846 35.2681 55.2238C34.913 55.3602 34.5138 55.4284 34.0706 55.4284ZM39.3164 51.3545V55.292H38.3107V48.7465H39.2823V49.7693H39.3675C39.5209 49.4369 39.7539 49.1698 40.0664 48.9681C40.3789 48.7636 40.7823 48.6613 41.2766 48.6613C41.7198 48.6613 42.1076 48.7522 42.44 48.934C42.7723 49.113 43.0309 49.3857 43.2155 49.7522C43.4002 50.1159 43.4925 50.5761 43.4925 51.1329V55.292H42.4868V51.2011C42.4868 50.6869 42.3533 50.2863 42.0863 49.9994C41.8192 49.7096 41.4527 49.5647 40.9868 49.5647C40.6658 49.5647 40.3789 49.6343 40.126 49.7735C39.876 49.9127 39.6786 50.1159 39.5337 50.3829C39.3888 50.6499 39.3164 50.9738 39.3164 51.3545ZM48.0745 55.4284C47.4439 55.4284 46.8998 55.2892 46.4424 55.0107C45.9879 54.7295 45.637 54.3374 45.3899 53.8346C45.1456 53.3289 45.0234 52.7409 45.0234 52.0704C45.0234 51.3999 45.1456 50.809 45.3899 50.2977C45.637 49.7835 45.9808 49.3829 46.4211 49.096C46.8643 48.8062 47.3814 48.6613 47.9723 48.6613C48.3132 48.6613 48.6498 48.7181 48.9822 48.8318C49.3146 48.9454 49.6172 49.1301 49.8899 49.3857C50.1626 49.6386 50.3799 49.9738 50.5419 50.3914C50.7038 50.809 50.7848 51.3232 50.7848 51.934V52.3602H45.7393V51.4909H49.762C49.762 51.1215 49.6882 50.792 49.5404 50.5022C49.3956 50.2124 49.1882 49.9838 48.9183 49.8161C48.6512 49.6485 48.3359 49.5647 47.9723 49.5647C47.5717 49.5647 47.2251 49.6642 46.9325 49.863C46.6427 50.059 46.4197 50.3147 46.2635 50.6301C46.1072 50.9454 46.0291 51.2835 46.0291 51.6443V52.2238C46.0291 52.7181 46.1143 53.1372 46.2848 53.4809C46.4581 53.8218 46.6981 54.0818 47.0049 54.2607C47.3118 54.4369 47.6683 54.5249 48.0745 54.5249C48.3387 54.5249 48.5774 54.488 48.7904 54.4142C49.0064 54.3374 49.1924 54.2238 49.3487 54.0732C49.5049 53.9198 49.6257 53.7295 49.7109 53.5022L50.6825 53.7749C50.5802 54.1045 50.4083 54.3943 50.1669 54.6443C49.9254 54.8914 49.6271 55.0846 49.272 55.2238C48.9169 55.3602 48.5177 55.4284 48.0745 55.4284ZM52.3146 55.292V48.7465H53.2862V49.7352H53.3544C53.4737 49.4113 53.6896 49.1485 54.0021 48.9468C54.3146 48.7451 54.6669 48.6443 55.0589 48.6443C55.1328 48.6443 55.2251 48.6457 55.3359 48.6485C55.4467 48.6514 55.5305 48.6556 55.5873 48.6613V49.684C55.5532 49.6755 55.4751 49.6627 55.3529 49.6457C55.2336 49.6258 55.1072 49.6159 54.9737 49.6159C54.6555 49.6159 54.3714 49.6826 54.1214 49.8161C53.8743 49.9468 53.6782 50.1286 53.5333 50.3616C53.3913 50.5917 53.3203 50.8545 53.3203 51.1499V55.292H52.3146ZM58.7056 55.4454C58.2908 55.4454 57.9144 55.3673 57.5763 55.211C57.2382 55.0519 56.9698 54.8232 56.7709 54.5249C56.5721 54.2238 56.4726 53.8602 56.4726 53.434C56.4726 53.059 56.5465 52.7551 56.6942 52.5221C56.8419 52.2863 57.0394 52.1017 57.2865 51.9681C57.5337 51.8346 57.8064 51.7352 58.1047 51.6698C58.4059 51.6017 58.7084 51.5477 59.0124 51.5079C59.4101 51.4568 59.7326 51.4184 59.9797 51.3928C60.2297 51.3644 60.4115 51.3176 60.5252 51.2522C60.6417 51.1869 60.6999 51.0732 60.6999 50.9113V50.8772C60.6999 50.4568 60.5848 50.1301 60.3547 49.8971C60.1275 49.6642 59.7823 49.5477 59.3192 49.5477C58.8391 49.5477 58.4627 49.6528 58.19 49.863C57.9172 50.0732 57.7255 50.2977 57.6147 50.5363L56.6601 50.1954C56.8306 49.7977 57.0578 49.488 57.3419 49.2664C57.6289 49.042 57.9414 48.8857 58.2794 48.7977C58.6203 48.7068 58.9556 48.6613 59.2851 48.6613C59.4953 48.6613 59.7368 48.6869 60.0096 48.738C60.2851 48.7863 60.5507 48.8872 60.8064 49.0406C61.065 49.194 61.2794 49.4255 61.4499 49.7352C61.6203 50.0448 61.7056 50.4596 61.7056 50.9795V55.292H60.6999V54.4056H60.6488C60.5806 54.5477 60.4669 54.6997 60.3078 54.8616C60.1488 55.0235 59.9371 55.1613 59.6729 55.2749C59.4087 55.3886 59.0863 55.4454 58.7056 55.4454ZM58.859 54.542C59.2567 54.542 59.5919 54.4639 59.8647 54.3076C60.1402 54.1514 60.3476 53.9497 60.4868 53.7025C60.6289 53.4553 60.6999 53.1954 60.6999 52.9227V52.0022C60.6573 52.0534 60.5635 52.1002 60.4186 52.1428C60.2766 52.1826 60.1118 52.2181 59.9243 52.2494C59.7397 52.2778 59.5593 52.3034 59.3831 52.3261C59.2098 52.346 59.0692 52.363 58.9613 52.3772C58.6999 52.4113 58.4556 52.4667 58.2283 52.5434C58.0039 52.6173 57.8221 52.7295 57.6828 52.8801C57.5465 53.0278 57.4783 53.2295 57.4783 53.4852C57.4783 53.8346 57.6076 54.0988 57.8661 54.2778C58.1275 54.4539 58.4584 54.542 58.859 54.542ZM64.5468 46.5647V55.292H63.5412V46.5647H64.5468ZM76.9229 49.292H75.8661C75.8036 48.988 75.6942 48.721 75.538 48.4909C75.3846 48.2607 75.1971 48.0676 74.9755 47.9113C74.7567 47.7522 74.5138 47.6329 74.2468 47.5534C73.9797 47.4738 73.7013 47.434 73.4115 47.434C72.8831 47.434 72.4044 47.5676 71.9755 47.8346C71.5493 48.1017 71.2098 48.4951 70.957 49.015C70.707 49.5349 70.582 50.1727 70.582 50.9284C70.582 51.684 70.707 52.3218 70.957 52.8417C71.2098 53.3616 71.5493 53.7551 71.9755 54.0221C72.4044 54.2892 72.8831 54.4227 73.4115 54.4227C73.7013 54.4227 73.9797 54.3829 74.2468 54.3034C74.5138 54.2238 74.7567 54.1059 74.9755 53.9497C75.1971 53.7906 75.3846 53.596 75.538 53.3659C75.6942 53.1329 75.8036 52.8659 75.8661 52.5647H76.9229C76.8434 53.0107 76.6985 53.4099 76.4882 53.7622C76.278 54.1144 76.0167 54.4142 75.7042 54.6613C75.3917 54.9056 75.0408 55.0917 74.6516 55.2195C74.2652 55.3474 73.8519 55.4113 73.4115 55.4113C72.6672 55.4113 72.0053 55.2295 71.4257 54.8659C70.8462 54.5022 70.3902 53.9852 70.0578 53.3147C69.7255 52.6443 69.5593 51.8488 69.5593 50.9284C69.5593 50.0079 69.7255 49.2124 70.0578 48.542C70.3902 47.8715 70.8462 47.3545 71.4257 46.9909C72.0053 46.6272 72.6672 46.4454 73.4115 46.4454C73.8519 46.4454 74.2652 46.5093 74.6516 46.6372C75.0408 46.765 75.3917 46.9525 75.7042 47.1997C76.0167 47.444 76.278 47.7423 76.4882 48.0945C76.6985 48.444 76.8434 48.8431 76.9229 49.292ZM81.1534 55.4284C80.5625 55.4284 80.044 55.2877 79.598 55.0065C79.1548 54.7252 78.8082 54.3318 78.5582 53.8261C78.311 53.3204 78.1875 52.7295 78.1875 52.0534C78.1875 51.3715 78.311 50.7764 78.5582 50.2678C78.8082 49.7593 79.1548 49.3644 79.598 49.0832C80.044 48.8019 80.5625 48.6613 81.1534 48.6613C81.7443 48.6613 82.2613 48.8019 82.7045 49.0832C83.1505 49.3644 83.4971 49.7593 83.7443 50.2678C83.9943 50.7764 84.1193 51.3715 84.1193 52.0534C84.1193 52.7295 83.9943 53.3204 83.7443 53.8261C83.4971 54.3318 83.1505 54.7252 82.7045 55.0065C82.2613 55.2877 81.7443 55.4284 81.1534 55.4284ZM81.1534 54.5249C81.6022 54.5249 81.9716 54.4099 82.2613 54.1798C82.5511 53.9497 82.7656 53.6471 82.9048 53.2721C83.044 52.8971 83.1136 52.4909 83.1136 52.0534C83.1136 51.6159 83.044 51.2082 82.9048 50.8303C82.7656 50.4525 82.5511 50.1471 82.2613 49.9142C81.9716 49.6812 81.6022 49.5647 81.1534 49.5647C80.7045 49.5647 80.3352 49.6812 80.0454 49.9142C79.7556 50.1471 79.5412 50.4525 79.402 50.8303C79.2628 51.2082 79.1931 51.6159 79.1931 52.0534C79.1931 52.4909 79.2628 52.8971 79.402 53.2721C79.5412 53.6471 79.7556 53.9497 80.0454 54.1798C80.3352 54.4099 80.7045 54.5249 81.1534 54.5249ZM86.6601 51.3545V55.292H85.6544V48.7465H86.626V49.7693H86.7113C86.8647 49.4369 87.0976 49.1698 87.4101 48.9681C87.7226 48.7636 88.126 48.6613 88.6203 48.6613C89.0635 48.6613 89.4513 48.7522 89.7837 48.934C90.1161 49.113 90.3746 49.3857 90.5593 49.7522C90.7439 50.1159 90.8363 50.5761 90.8363 51.1329V55.292H89.8306V51.2011C89.8306 50.6869 89.6971 50.2863 89.43 49.9994C89.163 49.7096 88.7965 49.5647 88.3306 49.5647C88.0096 49.5647 87.7226 49.6343 87.4698 49.7735C87.2198 49.9127 87.0223 50.1159 86.8775 50.3829C86.7326 50.6499 86.6601 50.9738 86.6601 51.3545ZM95.5206 48.7465V49.5988H92.1285V48.7465H95.5206ZM93.1172 47.1784H94.1228V53.417C94.1228 53.7011 94.164 53.9142 94.2464 54.0562C94.3316 54.1954 94.4396 54.2892 94.5703 54.3374C94.7038 54.3829 94.8444 54.4056 94.9922 54.4056C95.1029 54.4056 95.1939 54.3999 95.2649 54.3886C95.3359 54.3744 95.3927 54.363 95.4353 54.3545L95.6399 55.2579C95.5717 55.2835 95.4765 55.309 95.3544 55.3346C95.2322 55.363 95.0774 55.3772 94.8899 55.3772C94.6058 55.3772 94.3274 55.3161 94.0547 55.194C93.7848 55.0718 93.5603 54.8857 93.3814 54.6357C93.2052 54.3857 93.1172 54.0704 93.1172 53.6897V47.1784ZM97.0333 55.292V48.7465H98.0049V49.7352H98.0731C98.1924 49.4113 98.4083 49.1485 98.7208 48.9468C99.0333 48.7451 99.3856 48.6443 99.7777 48.6443C99.8515 48.6443 99.9439 48.6457 100.055 48.6485C100.165 48.6514 100.249 48.6556 100.306 48.6613V49.684C100.272 49.6755 100.194 49.6627 100.072 49.6457C99.9524 49.6258 99.826 49.6159 99.6924 49.6159C99.3743 49.6159 99.0902 49.6826 98.8402 49.8161C98.593 49.9468 98.397 50.1286 98.2521 50.3616C98.1101 50.5917 98.039 50.8545 98.039 51.1499V55.292H97.0333ZM103.424 55.4454C103.01 55.4454 102.633 55.3673 102.295 55.211C101.957 55.0519 101.689 54.8232 101.49 54.5249C101.291 54.2238 101.191 53.8602 101.191 53.434C101.191 53.059 101.265 52.7551 101.413 52.5221C101.561 52.2863 101.758 52.1017 102.005 51.9681C102.252 51.8346 102.525 51.7352 102.823 51.6698C103.125 51.6017 103.427 51.5477 103.731 51.5079C104.129 51.4568 104.451 51.4184 104.698 51.3928C104.948 51.3644 105.13 51.3176 105.244 51.2522C105.36 51.1869 105.419 51.0732 105.419 50.9113V50.8772C105.419 50.4568 105.304 50.1301 105.073 49.8971C104.846 49.6642 104.501 49.5477 104.038 49.5477C103.558 49.5477 103.181 49.6528 102.909 49.863C102.636 50.0732 102.444 50.2977 102.333 50.5363L101.379 50.1954C101.549 49.7977 101.777 49.488 102.061 49.2664C102.348 49.042 102.66 48.8857 102.998 48.7977C103.339 48.7068 103.674 48.6613 104.004 48.6613C104.214 48.6613 104.456 48.6869 104.728 48.738C105.004 48.7863 105.269 48.8872 105.525 49.0406C105.784 49.194 105.998 49.4255 106.169 49.7352C106.339 50.0448 106.424 50.4596 106.424 50.9795V55.292H105.419V54.4056H105.368C105.299 54.5477 105.186 54.6997 105.027 54.8616C104.868 55.0235 104.656 55.1613 104.392 55.2749C104.127 55.3886 103.805 55.4454 103.424 55.4454ZM103.578 54.542C103.975 54.542 104.311 54.4639 104.583 54.3076C104.859 54.1514 105.066 53.9497 105.206 53.7025C105.348 53.4553 105.419 53.1954 105.419 52.9227V52.0022C105.376 52.0534 105.282 52.1002 105.137 52.1428C104.995 52.1826 104.831 52.2181 104.643 52.2494C104.458 52.2778 104.278 52.3034 104.102 52.3261C103.929 52.346 103.788 52.363 103.68 52.3772C103.419 52.4113 103.174 52.4667 102.947 52.5434C102.723 52.6173 102.541 52.7295 102.402 52.8801C102.265 53.0278 102.197 53.2295 102.197 53.4852C102.197 53.8346 102.326 54.0988 102.585 54.2778C102.846 54.4539 103.177 54.542 103.578 54.542ZM110.919 55.4284C110.305 55.4284 109.777 55.2835 109.334 54.9937C108.891 54.7039 108.55 54.3048 108.311 53.7963C108.072 53.2877 107.953 52.7068 107.953 52.0534C107.953 51.3886 108.075 50.8019 108.32 50.2934C108.567 49.782 108.91 49.3829 109.351 49.096C109.794 48.8062 110.311 48.6613 110.902 48.6613C111.362 48.6613 111.777 48.7465 112.146 48.917C112.516 49.0874 112.818 49.3261 113.054 49.6329C113.29 49.9397 113.436 50.2977 113.493 50.7068H112.487C112.41 50.4085 112.24 50.1443 111.976 49.9142C111.714 49.6812 111.362 49.5647 110.919 49.5647C110.527 49.5647 110.183 49.667 109.888 49.8715C109.595 50.0732 109.366 50.3588 109.202 50.7281C109.04 51.0945 108.959 51.5249 108.959 52.0193C108.959 52.5249 109.038 52.9653 109.197 53.3403C109.359 53.7153 109.587 54.0065 109.879 54.2139C110.175 54.4213 110.521 54.5249 110.919 54.5249C111.18 54.5249 111.418 54.4795 111.631 54.3886C111.844 54.2977 112.024 54.167 112.172 53.9965C112.32 53.8261 112.425 53.6215 112.487 53.3829H113.493C113.436 53.7693 113.295 54.1173 113.071 54.4269C112.849 54.7338 112.555 54.9781 112.189 55.1599C111.825 55.3389 111.402 55.4284 110.919 55.4284ZM117.81 48.7465V49.5988H114.418V48.7465H117.81ZM115.406 47.1784H116.412V53.417C116.412 53.7011 116.453 53.9142 116.535 54.0562C116.621 54.1954 116.729 54.2892 116.859 54.3374C116.993 54.3829 117.133 54.4056 117.281 54.4056C117.392 54.4056 117.483 54.3999 117.554 54.3886C117.625 54.3744 117.682 54.363 117.724 54.3545L117.929 55.2579C117.861 55.2835 117.766 55.309 117.643 55.3346C117.521 55.363 117.366 55.3772 117.179 55.3772C116.895 55.3772 116.616 55.3161 116.344 55.194C116.074 55.0718 115.849 54.8857 115.67 54.6357C115.494 54.3857 115.406 54.0704 115.406 53.6897V47.1784ZM121.911 55.4284C121.32 55.4284 120.802 55.2877 120.356 55.0065C119.913 54.7252 119.566 54.3318 119.316 53.8261C119.069 53.3204 118.945 52.7295 118.945 52.0534C118.945 51.3715 119.069 50.7764 119.316 50.2678C119.566 49.7593 119.913 49.3644 120.356 49.0832C120.802 48.8019 121.32 48.6613 121.911 48.6613C122.502 48.6613 123.019 48.8019 123.462 49.0832C123.908 49.3644 124.255 49.7593 124.502 50.2678C124.752 50.7764 124.877 51.3715 124.877 52.0534C124.877 52.7295 124.752 53.3204 124.502 53.8261C124.255 54.3318 123.908 54.7252 123.462 55.0065C123.019 55.2877 122.502 55.4284 121.911 55.4284ZM121.911 54.5249C122.36 54.5249 122.729 54.4099 123.019 54.1798C123.309 53.9497 123.523 53.6471 123.663 53.2721C123.802 52.8971 123.871 52.4909 123.871 52.0534C123.871 51.6159 123.802 51.2082 123.663 50.8303C123.523 50.4525 123.309 50.1471 123.019 49.9142C122.729 49.6812 122.36 49.5647 121.911 49.5647C121.462 49.5647 121.093 49.6812 120.803 49.9142C120.513 50.1471 120.299 50.4525 120.16 50.8303C120.021 51.2082 119.951 51.6159 119.951 52.0534C119.951 52.4909 120.021 52.8971 120.16 53.2721C120.299 53.6471 120.513 53.9497 120.803 54.1798C121.093 54.4099 121.462 54.5249 121.911 54.5249ZM126.412 55.292V48.7465H127.384V49.7352H127.452C127.571 49.4113 127.787 49.1485 128.1 48.9468C128.412 48.7451 128.765 48.6443 129.157 48.6443C129.23 48.6443 129.323 48.6457 129.434 48.6485C129.544 48.6514 129.628 48.6556 129.685 48.6613V49.684C129.651 49.6755 129.573 49.6627 129.451 49.6457C129.331 49.6258 129.205 49.6159 129.071 49.6159C128.753 49.6159 128.469 49.6826 128.219 49.8161C127.972 49.9468 127.776 50.1286 127.631 50.3616C127.489 50.5917 127.418 50.8545 127.418 51.1499V55.292H126.412ZM135.513 50.2124L134.61 50.4681C134.553 50.3176 134.469 50.1713 134.359 50.0292C134.251 49.8843 134.103 49.765 133.915 49.6713C133.728 49.5775 133.488 49.5306 133.195 49.5306C132.795 49.5306 132.461 49.623 132.194 49.8076C131.93 49.9894 131.798 50.221 131.798 50.5022C131.798 50.7522 131.888 50.9497 132.07 51.0945C132.252 51.2394 132.536 51.3602 132.923 51.4568L133.894 51.6954C134.479 51.8374 134.915 52.0548 135.202 52.3474C135.489 52.6372 135.633 53.0107 135.633 53.4681C135.633 53.8431 135.525 54.1784 135.309 54.4738C135.096 54.7693 134.798 55.0022 134.414 55.1727C134.031 55.3431 133.584 55.4284 133.076 55.4284C132.408 55.4284 131.856 55.2835 131.418 54.9937C130.981 54.7039 130.704 54.2806 130.587 53.7238L131.542 53.4852C131.633 53.8374 131.805 54.1017 132.057 54.2778C132.313 54.4539 132.647 54.542 133.059 54.542C133.528 54.542 133.9 54.4426 134.175 54.2437C134.454 54.042 134.593 53.8005 134.593 53.5193C134.593 53.292 134.513 53.1017 134.354 52.9482C134.195 52.792 133.951 52.6755 133.621 52.5988L132.531 52.3431C131.931 52.2011 131.491 51.9809 131.209 51.6826C130.931 51.3815 130.792 51.0051 130.792 50.5534C130.792 50.184 130.896 49.8573 131.103 49.5732C131.313 49.2892 131.599 49.0661 131.959 48.9042C132.323 48.7423 132.735 48.6613 133.195 48.6613C133.843 48.6613 134.352 48.8034 134.721 49.0874C135.093 49.3715 135.357 49.7465 135.513 50.2124ZM140.522 55.292V48.7465H141.527V55.292H140.522ZM141.033 47.6556C140.837 47.6556 140.668 47.5889 140.526 47.4553C140.387 47.3218 140.317 47.1613 140.317 46.9738C140.317 46.7863 140.387 46.6258 140.526 46.4923C140.668 46.3588 140.837 46.292 141.033 46.292C141.229 46.292 141.397 46.3588 141.536 46.4923C141.678 46.6258 141.749 46.7863 141.749 46.9738C141.749 47.1613 141.678 47.3218 141.536 47.4553C141.397 47.5889 141.229 47.6556 141.033 47.6556ZM144.375 51.3545V55.292H143.369V48.7465H144.341V49.7693H144.426C144.58 49.4369 144.812 49.1698 145.125 48.9681C145.437 48.7636 145.841 48.6613 146.335 48.6613C146.778 48.6613 147.166 48.7522 147.499 48.934C147.831 49.113 148.089 49.3857 148.274 49.7522C148.459 50.1159 148.551 50.5761 148.551 51.1329V55.292H147.545V51.2011C147.545 50.6869 147.412 50.2863 147.145 49.9994C146.878 49.7096 146.511 49.5647 146.045 49.5647C145.724 49.5647 145.437 49.6343 145.185 49.7735C144.935 49.9127 144.737 50.1159 144.592 50.3829C144.447 50.6499 144.375 50.9738 144.375 51.3545ZM46.2667 67.292L43.8803 58.5647H44.9542L46.778 65.6727H46.8632L48.7212 58.5647H49.9144L51.7723 65.6727H51.8576L53.6814 58.5647H54.7553L52.3689 67.292H51.278L49.3519 60.3374H49.2837L47.3576 67.292H46.2667ZM57.9854 67.4284C57.3945 67.4284 56.876 67.2877 56.43 67.0065C55.9868 66.7252 55.6402 66.3318 55.3902 65.8261C55.1431 65.3204 55.0195 64.7295 55.0195 64.0534C55.0195 63.3715 55.1431 62.7764 55.3902 62.2678C55.6402 61.7593 55.9868 61.3644 56.43 61.0832C56.876 60.8019 57.3945 60.6613 57.9854 60.6613C58.5763 60.6613 59.0934 60.8019 59.5365 61.0832C59.9826 61.3644 60.3292 61.7593 60.5763 62.2678C60.8263 62.7764 60.9513 63.3715 60.9513 64.0534C60.9513 64.7295 60.8263 65.3204 60.5763 65.8261C60.3292 66.3318 59.9826 66.7252 59.5365 67.0065C59.0934 67.2877 58.5763 67.4284 57.9854 67.4284ZM57.9854 66.5249C58.4343 66.5249 58.8036 66.4099 59.0934 66.1798C59.3831 65.9497 59.5976 65.6471 59.7368 65.2721C59.876 64.8971 59.9456 64.4909 59.9456 64.0534C59.9456 63.6159 59.876 63.2082 59.7368 62.8303C59.5976 62.4525 59.3831 62.1471 59.0934 61.9142C58.8036 61.6812 58.4343 61.5647 57.9854 61.5647C57.5365 61.5647 57.1672 61.6812 56.8775 61.9142C56.5877 62.1471 56.3732 62.4525 56.234 62.8303C56.0948 63.2082 56.0252 63.6159 56.0252 64.0534C56.0252 64.4909 56.0948 64.8971 56.234 65.2721C56.3732 65.6471 56.5877 65.9497 56.8775 66.1798C57.1672 66.4099 57.5365 66.5249 57.9854 66.5249ZM65.1456 67.4284C64.5547 67.4284 64.0362 67.2877 63.5902 67.0065C63.147 66.7252 62.8004 66.3318 62.5504 65.8261C62.3032 65.3204 62.1797 64.7295 62.1797 64.0534C62.1797 63.3715 62.3032 62.7764 62.5504 62.2678C62.8004 61.7593 63.147 61.3644 63.5902 61.0832C64.0362 60.8019 64.5547 60.6613 65.1456 60.6613C65.7365 60.6613 66.2535 60.8019 66.6967 61.0832C67.1427 61.3644 67.4893 61.7593 67.7365 62.2678C67.9865 62.7764 68.1115 63.3715 68.1115 64.0534C68.1115 64.7295 67.9865 65.3204 67.7365 65.8261C67.4893 66.3318 67.1427 66.7252 66.6967 67.0065C66.2535 67.2877 65.7365 67.4284 65.1456 67.4284ZM65.1456 66.5249C65.5944 66.5249 65.9637 66.4099 66.2535 66.1798C66.5433 65.9497 66.7578 65.6471 66.897 65.2721C67.0362 64.8971 67.1058 64.4909 67.1058 64.0534C67.1058 63.6159 67.0362 63.2082 66.897 62.8303C66.7578 62.4525 66.5433 62.1471 66.2535 61.9142C65.9637 61.6812 65.5944 61.5647 65.1456 61.5647C64.6967 61.5647 64.3274 61.6812 64.0376 61.9142C63.7478 62.1471 63.5333 62.4525 63.3941 62.8303C63.2549 63.2082 63.1853 63.6159 63.1853 64.0534C63.1853 64.4909 63.2549 64.8971 63.3941 65.2721C63.5333 65.6471 63.7478 65.9497 64.0376 66.1798C64.3274 66.4099 64.6967 66.5249 65.1456 66.5249ZM72.1182 67.4284C71.5728 67.4284 71.0912 67.2906 70.6736 67.015C70.256 66.7366 69.9293 66.3445 69.6935 65.8389C69.4577 65.3303 69.3398 64.7295 69.3398 64.0363C69.3398 63.3488 69.4577 62.7522 69.6935 62.2465C69.9293 61.7409 70.2574 61.3502 70.6779 61.0747C71.0983 60.7991 71.5841 60.6613 72.1353 60.6613C72.5614 60.6613 72.898 60.7323 73.1452 60.8744C73.3952 61.0136 73.5855 61.1727 73.7162 61.3517C73.8498 61.5278 73.9534 61.6727 74.0273 61.7863H74.1125V58.5647H75.1182V67.292H74.1466V66.2863H74.0273C73.9534 66.4056 73.8483 66.5562 73.712 66.738C73.5756 66.917 73.381 67.0775 73.1282 67.2195C72.8753 67.3588 72.5387 67.4284 72.1182 67.4284ZM72.2546 66.5249C72.658 66.5249 72.9989 66.4198 73.2773 66.2096C73.5557 65.9965 73.7674 65.7025 73.9123 65.3275C74.0571 64.9497 74.1296 64.5136 74.1296 64.0193C74.1296 63.5306 74.0586 63.1031 73.9165 62.7366C73.7745 62.3673 73.5642 62.0803 73.2858 61.8758C73.0074 61.6684 72.6637 61.5647 72.2546 61.5647C71.8284 61.5647 71.4733 61.6741 71.1892 61.8928C70.908 62.1088 70.6963 62.4028 70.5543 62.7749C70.4151 63.1443 70.3455 63.559 70.3455 64.0193C70.3455 64.4852 70.4165 64.9085 70.5586 65.2892C70.7034 65.667 70.9165 65.9681 71.1978 66.1926C71.4819 66.4142 71.8341 66.5249 72.2546 66.5249ZM78.1054 58.5647V67.292H77.0998V58.5647H78.1054ZM81.8735 67.4454C81.4588 67.4454 81.0824 67.3673 80.7443 67.211C80.4062 67.0519 80.1378 66.8232 79.9389 66.5249C79.74 66.2238 79.6406 65.8602 79.6406 65.434C79.6406 65.059 79.7145 64.7551 79.8622 64.5221C80.0099 64.2863 80.2074 64.1017 80.4545 63.9681C80.7017 63.8346 80.9744 63.7352 81.2727 63.6698C81.5738 63.6017 81.8764 63.5477 82.1804 63.5079C82.5781 63.4568 82.9005 63.4184 83.1477 63.3928C83.3977 63.3644 83.5795 63.3176 83.6931 63.2522C83.8096 63.1869 83.8679 63.0732 83.8679 62.9113V62.8772C83.8679 62.4568 83.7528 62.1301 83.5227 61.8971C83.2954 61.6642 82.9503 61.5477 82.4872 61.5477C82.0071 61.5477 81.6306 61.6528 81.3579 61.863C81.0852 62.0732 80.8934 62.2977 80.7826 62.5363L79.8281 62.1954C79.9985 61.7977 80.2258 61.488 80.5099 61.2664C80.7968 61.042 81.1093 60.8857 81.4474 60.7977C81.7883 60.7068 82.1235 60.6613 82.4531 60.6613C82.6633 60.6613 82.9048 60.6869 83.1775 60.738C83.4531 60.7863 83.7187 60.8872 83.9744 61.0406C84.2329 61.194 84.4474 61.4255 84.6179 61.7352C84.7883 62.0448 84.8735 62.4596 84.8735 62.9795V67.292H83.8679V66.4056H83.8167C83.7485 66.5477 83.6349 66.6997 83.4758 66.8616C83.3167 67.0235 83.1051 67.1613 82.8409 67.2749C82.5767 67.3886 82.2542 67.4454 81.8735 67.4454ZM82.027 66.542C82.4247 66.542 82.7599 66.4639 83.0326 66.3076C83.3082 66.1514 83.5156 65.9497 83.6548 65.7025C83.7968 65.4553 83.8679 65.1954 83.8679 64.9227V64.0022C83.8253 64.0534 83.7315 64.1002 83.5866 64.1428C83.4446 64.1826 83.2798 64.2181 83.0923 64.2494C82.9076 64.2778 82.7272 64.3034 82.5511 64.3261C82.3778 64.346 82.2372 64.363 82.1292 64.3772C81.8679 64.4113 81.6235 64.4667 81.3963 64.5434C81.1718 64.6173 80.99 64.7295 80.8508 64.8801C80.7145 65.0278 80.6463 65.2295 80.6463 65.4852C80.6463 65.8346 80.7755 66.0988 81.0341 66.2778C81.2954 66.4539 81.6264 66.542 82.027 66.542ZM87.7148 63.3545V67.292H86.7091V60.7465H87.6807V61.7693H87.7659C87.9194 61.4369 88.1523 61.1698 88.4648 60.9681C88.7773 60.7636 89.1807 60.6613 89.675 60.6613C90.1182 60.6613 90.506 60.7522 90.8384 60.934C91.1708 61.113 91.4293 61.3857 91.614 61.7522C91.7986 62.1159 91.8909 62.5761 91.8909 63.1329V67.292H90.8853V63.2011C90.8853 62.6869 90.7517 62.2863 90.4847 61.9994C90.2177 61.7096 89.8512 61.5647 89.3853 61.5647C89.0642 61.5647 88.7773 61.6343 88.5245 61.7735C88.2745 61.9127 88.077 62.1159 87.9321 62.3829C87.7873 62.6499 87.7148 62.9738 87.7148 63.3545ZM96.2003 67.4284C95.6548 67.4284 95.1733 67.2906 94.7556 67.015C94.338 66.7366 94.0113 66.3445 93.7755 65.8389C93.5397 65.3303 93.4218 64.7295 93.4218 64.0363C93.4218 63.3488 93.5397 62.7522 93.7755 62.2465C94.0113 61.7409 94.3395 61.3502 94.7599 61.0747C95.1804 60.7991 95.6662 60.6613 96.2173 60.6613C96.6434 60.6613 96.9801 60.7323 97.2272 60.8744C97.4772 61.0136 97.6676 61.1727 97.7983 61.3517C97.9318 61.5278 98.0355 61.6727 98.1093 61.7863H98.1946V58.5647H99.2003V67.292H98.2287V66.2863H98.1093C98.0355 66.4056 97.9304 66.5562 97.794 66.738C97.6576 66.917 97.463 67.0775 97.2102 67.2195C96.9574 67.3588 96.6207 67.4284 96.2003 67.4284ZM96.3366 66.5249C96.74 66.5249 97.0809 66.4198 97.3593 66.2096C97.6378 65.9965 97.8494 65.7025 97.9943 65.3275C98.1392 64.9497 98.2116 64.5136 98.2116 64.0193C98.2116 63.5306 98.1406 63.1031 97.9985 62.7366C97.8565 62.3673 97.6463 62.0803 97.3679 61.8758C97.0895 61.6684 96.7457 61.5647 96.3366 61.5647C95.9105 61.5647 95.5554 61.6741 95.2713 61.8928C94.99 62.1088 94.7784 62.4028 94.6363 62.7749C94.4971 63.1443 94.4275 63.559 94.4275 64.0193C94.4275 64.4852 94.4985 64.9085 94.6406 65.2892C94.7855 65.667 94.9985 65.9681 95.2798 66.1926C95.5639 66.4142 95.9162 66.5249 96.3366 66.5249ZM104.693 67.292V58.5647H105.75V62.4511H110.403V58.5647H111.46V67.292H110.403V63.3886H105.75V67.292H104.693ZM113.44 67.292V60.7465H114.445V67.292H113.44ZM113.951 59.6556C113.755 59.6556 113.586 59.5889 113.444 59.4553C113.305 59.3218 113.235 59.1613 113.235 58.9738C113.235 58.7863 113.305 58.6258 113.444 58.4923C113.586 58.3588 113.755 58.292 113.951 58.292C114.147 58.292 114.315 58.3588 114.454 58.4923C114.596 58.6258 114.667 58.7863 114.667 58.9738C114.667 59.1613 114.596 59.3218 114.454 59.4553C114.315 59.5889 114.147 59.6556 113.951 59.6556ZM117.293 58.5647V67.292H116.287V58.5647H117.293ZM120.141 58.5647V67.292H119.135V58.5647H120.141ZM126.619 62.2124L125.716 62.4681C125.659 62.3176 125.575 62.1713 125.464 62.0292C125.356 61.8843 125.208 61.765 125.021 61.6713C124.833 61.5775 124.593 61.5306 124.301 61.5306C123.9 61.5306 123.566 61.623 123.299 61.8076C123.035 61.9894 122.903 62.221 122.903 62.5022C122.903 62.7522 122.994 62.9497 123.176 63.0945C123.358 63.2394 123.642 63.3602 124.028 63.4568L125 63.6954C125.585 63.8374 126.021 64.0548 126.308 64.3474C126.595 64.6372 126.738 65.0107 126.738 65.4681C126.738 65.8431 126.63 66.1784 126.414 66.4738C126.201 66.7693 125.903 67.0022 125.519 67.1727C125.136 67.3431 124.69 67.4284 124.181 67.4284C123.514 67.4284 122.961 67.2835 122.524 66.9937C122.086 66.7039 121.809 66.2806 121.693 65.7238L122.647 65.4852C122.738 65.8374 122.91 66.1017 123.163 66.2778C123.419 66.4539 123.752 66.542 124.164 66.542C124.633 66.542 125.005 66.4426 125.281 66.2437C125.559 66.042 125.698 65.8005 125.698 65.5193C125.698 65.292 125.619 65.1017 125.46 64.9482C125.301 64.792 125.056 64.6755 124.727 64.5988L123.636 64.3431C123.037 64.2011 122.596 63.9809 122.315 63.6826C122.037 63.3815 121.897 63.0051 121.897 62.5534C121.897 62.184 122.001 61.8573 122.208 61.5732C122.419 61.2892 122.704 61.0661 123.065 60.9042C123.429 60.7423 123.841 60.6613 124.301 60.6613C124.948 60.6613 125.457 60.8034 125.826 61.0874C126.198 61.3715 126.463 61.7465 126.619 62.2124Z" fill="white"/>
<path d="M71.2085 4.30478V2.27637H80.7653V4.30478H77.2028V13.9127H74.771V4.30478H71.2085Z" fill="white"/>
<path d="M84.9713 14.0832C84.0887 14.0832 83.3254 13.8957 82.6815 13.5207C82.0414 13.1419 81.547 12.6154 81.1986 11.9411C80.8501 11.2631 80.6758 10.4771 80.6758 9.58319C80.6758 8.68167 80.8501 7.89379 81.1986 7.21955C81.547 6.54152 82.0414 6.015 82.6815 5.64C83.3254 5.26122 84.0887 5.07182 84.9713 5.07182C85.8539 5.07182 86.6152 5.26122 87.2554 5.64C87.8993 6.015 88.3955 6.54152 88.744 7.21955C89.0925 7.89379 89.2667 8.68167 89.2667 9.58319C89.2667 10.4771 89.0925 11.2631 88.744 11.9411C88.3955 12.6154 87.8993 13.1419 87.2554 13.5207C86.6152 13.8957 85.8539 14.0832 84.9713 14.0832ZM84.9826 12.2082C85.3842 12.2082 85.7194 12.0946 85.9883 11.8673C86.2573 11.6362 86.4599 11.3218 86.5963 10.9241C86.7364 10.5264 86.8065 10.0737 86.8065 9.56614C86.8065 9.05856 86.7364 8.60591 86.5963 8.20819C86.4599 7.81046 86.2573 7.49606 85.9883 7.265C85.7194 7.03394 85.3842 6.91841 84.9826 6.91841C84.5773 6.91841 84.2364 7.03394 83.9599 7.265C83.6872 7.49606 83.4807 7.81046 83.3406 8.20819C83.2042 8.60591 83.1361 9.05856 83.1361 9.56614C83.1361 10.0737 83.2042 10.5264 83.3406 10.9241C83.4807 11.3218 83.6872 11.6362 83.9599 11.8673C84.2364 12.0946 84.5773 12.2082 84.9826 12.2082Z" fill="white"/>
<path d="M90.8406 17.1855V5.18546H93.227V6.65137H93.3349C93.441 6.41652 93.5944 6.17788 93.7951 5.93546C93.9997 5.68925 94.2648 5.4847 94.5906 5.32182C94.9201 5.15516 95.3292 5.07182 95.8179 5.07182C96.4542 5.07182 97.0414 5.23849 97.5792 5.57182C98.1171 5.90137 98.547 6.39947 98.869 7.06614C99.191 7.72902 99.352 8.56046 99.352 9.56046C99.352 10.5339 99.1948 11.3559 98.8804 12.0264C98.5698 12.693 98.1455 13.1987 97.6076 13.5434C97.0736 13.8843 96.4751 14.0548 95.8122 14.0548C95.3425 14.0548 94.9429 13.9771 94.6133 13.8218C94.2876 13.6665 94.0205 13.4714 93.8122 13.2366C93.6039 12.998 93.4448 12.7574 93.3349 12.515H93.2611V17.1855H90.8406ZM93.2099 9.54909C93.2099 10.068 93.2819 10.5207 93.4258 10.907C93.5698 11.2934 93.7781 11.5945 94.0508 11.8105C94.3236 12.0226 94.655 12.1286 95.0451 12.1286C95.4391 12.1286 95.7724 12.0207 96.0451 11.8048C96.3179 11.5851 96.5243 11.282 96.6645 10.8957C96.8084 10.5055 96.8804 10.0567 96.8804 9.54909C96.8804 9.04531 96.8103 8.60212 96.6701 8.21955C96.53 7.83697 96.3236 7.53773 96.0508 7.32182C95.7781 7.10591 95.4429 6.99796 95.0451 6.99796C94.6512 6.99796 94.3179 7.10212 94.0451 7.31046C93.7762 7.51879 93.5698 7.81425 93.4258 8.19682C93.2819 8.5794 93.2099 9.03016 93.2099 9.54909Z" fill="white"/>
<path d="M108.896 14.0718C108.093 14.0718 107.377 13.9241 106.748 13.6286C106.123 13.3332 105.627 12.926 105.26 12.407C104.892 11.8881 104.701 11.2934 104.686 10.623H107.072C107.099 11.0737 107.288 11.4392 107.64 11.7195C107.993 11.9999 108.411 12.14 108.896 12.14C109.282 12.14 109.623 12.0548 109.919 11.8843C110.218 11.7101 110.451 11.4695 110.618 11.1627C110.788 10.8521 110.873 10.4961 110.873 10.0945C110.873 9.68546 110.786 9.32561 110.612 9.015C110.441 8.7044 110.205 8.46197 109.902 8.28773C109.599 8.11349 109.252 8.02447 108.862 8.02069C108.521 8.02069 108.19 8.09076 107.868 8.23091C107.549 8.37106 107.301 8.56235 107.123 8.80478L104.936 8.41273L105.487 2.27637H112.601V4.28773H107.515L107.214 7.2025H107.282C107.487 6.91463 107.796 6.67599 108.208 6.48659C108.621 6.2972 109.083 6.2025 109.595 6.2025C110.296 6.2025 110.921 6.36728 111.47 6.69682C112.019 7.02637 112.453 7.47902 112.771 8.05478C113.089 8.62675 113.246 9.28584 113.243 10.032C113.246 10.8161 113.065 11.5131 112.697 12.123C112.333 12.729 111.824 13.2063 111.169 13.5548C110.517 13.8995 109.76 14.0718 108.896 14.0718Z" fill="white"/>
<path d="M65.1556 4.14009V4.17713C65.1556 4.6134 65.1556 4.83204 65.0506 5.01061C64.9456 5.18917 64.7543 5.2952 64.3728 5.50775L63.9706 5.73096C64.2475 4.79349 64.3404 3.786 64.3744 2.92462L64.3794 2.81251L64.3805 2.78613C64.7107 2.90078 64.8964 2.98651 65.012 3.14682C65.1556 3.34618 65.1556 3.61099 65.1556 4.14009ZM55.0098 4.14009V4.17713C55.0098 4.6134 55.0098 4.83204 55.1148 5.01061C55.2198 5.18917 55.411 5.2952 55.7925 5.50775L56.1953 5.73096C55.9178 4.79349 55.825 3.786 55.791 2.92462L55.7859 2.81251L55.7854 2.78613C55.4547 2.90078 55.269 2.98651 55.1533 3.14682C55.0098 3.34618 55.0098 3.6115 55.0098 4.14009Z" fill="white"/>
<path fill-rule="evenodd" clip-rule="evenodd" d="M62.3028 1.19079C61.5688 1.07056 60.8261 1.01168 60.0824 1.01476C59.1779 1.01476 58.4322 1.09441 57.862 1.19079C57.2842 1.28819 56.9955 1.33689 56.754 1.63417C56.5131 1.93144 56.5258 2.25255 56.5511 2.89479C56.6389 5.10049 57.1147 7.8561 59.7019 8.0996V9.89237H58.9765C58.8593 9.89244 58.7457 9.93311 58.655 10.0075C58.5644 10.0818 58.5023 10.1853 58.4793 10.3002L58.383 10.7801H57.0386C56.9377 10.7801 56.841 10.8202 56.7696 10.8916C56.6982 10.9629 56.6582 11.0597 56.6582 11.1606C56.6582 11.2615 56.6982 11.3583 56.7696 11.4296C56.841 11.501 56.9377 11.5411 57.0386 11.5411H63.1261C63.227 11.5411 63.3238 11.501 63.3952 11.4296C63.4665 11.3583 63.5066 11.2615 63.5066 11.1606C63.5066 11.0597 63.4665 10.9629 63.3952 10.8916C63.3238 10.8202 63.227 10.7801 63.1261 10.7801H61.7818L61.6854 10.3002C61.6624 10.1853 61.6004 10.0818 61.5097 10.0075C61.4191 9.93311 61.3055 9.89244 61.1883 9.89237H60.4628V8.0996C63.05 7.8561 63.5264 5.101 63.6136 2.89479C63.639 2.25255 63.6522 1.93093 63.4107 1.63417C63.1693 1.33689 62.8806 1.28819 62.3028 1.19079Z" fill="white"/>
</svg>
