<svg width="140" height="28" viewBox="0 0 140 28" fill="none" xmlns="http://www.w3.org/2000/svg">
<path d="M8.85392 26.6643H3.58755V13.5206H0V9.24131H3.58741V6.19627C3.58741 2.5879 5.17412 0 10.4262 0C11.5371 0 13.281 0.224159 13.281 0.224159V4.19773H11.4493C9.58291 4.19773 8.85419 4.76611 8.85419 6.33746V9.24131H13.2111L12.8232 13.5206H8.85406L8.85392 26.6643ZM20.9377 8.89933C20.861 8.89933 20.782 8.90213 20.7039 8.90409C15.8206 8.90409 13.5864 12.5816 13.5864 17.8019C13.5864 24.378 16.4845 27.01 20.7421 27.01C23.178 27.01 24.7784 25.9835 25.7511 24.068V26.6661H30.7602V9.24313H25.7511V11.9225C24.9569 10.1987 23.3117 8.91976 20.9377 8.89933ZM22.2114 13.0163C24.2624 13.0163 25.4934 14.4486 25.4934 16.8848L25.4982 19.3731C25.4982 21.0151 24.4814 22.9361 22.2114 22.9361C18.7215 22.9361 18.8147 19.1635 18.8147 17.907C18.8147 13.6803 20.6741 13.0163 22.2114 13.0163ZM32.7831 17.9555C32.7831 15.8383 32.6819 8.91067 41.6971 8.91067C45.316 8.91067 46.8271 10.0627 46.8271 10.0627L45.6125 13.834C45.6125 13.834 44.1034 13.0021 42.1369 13.0021C39.6183 13.0021 38.0112 14.4638 38.0112 17.0358L38.014 18.88C38.014 21.3513 39.5646 23.0011 42.1421 23.0011C43.9336 23.0011 45.5847 22.1612 45.5847 22.1612L46.7962 25.8538C46.7962 25.8538 45.4145 27.0131 41.7224 27.0131C33.1385 27.0131 32.7832 20.7977 32.7832 17.9555H32.7831ZM76.1971 8.90409C81.0805 8.90409 83.3499 12.5816 83.3499 17.8019C83.3499 24.378 80.4517 27.01 76.1941 27.01C73.7582 27.01 71.9575 25.9837 70.9848 24.068V26.6661L66.0387 26.6641V0.529754L71.2902 0.0712215V11.6865C72.0481 9.65436 74.5388 8.90409 76.1971 8.90409ZM74.7248 13.0163C72.6738 13.0163 71.2902 14.4486 71.2902 16.8848L71.2853 19.3731C71.2822 21.0151 72.2435 22.9361 74.7248 22.9361C78.2147 22.9361 78.1214 19.1635 78.1214 17.907C78.1214 13.6803 76.2622 13.0163 74.7248 13.0163ZM55.9387 8.9185C50.4 8.9185 47.4759 11.9418 47.4759 17.3147V18.3129C47.4759 25.2863 51.5822 27.0817 56.4778 27.0817C61.2362 27.0817 63.3901 25.7492 63.3901 25.7492L62.4075 22.2007C62.4075 22.2007 59.8739 23.2799 57.1074 23.2799C54.2395 23.2799 53.0061 22.5481 52.6899 19.7888H63.81V16.942C63.81 11.1139 60.5282 8.91836 55.9386 8.91836L55.9387 8.9185ZM56.0722 12.4717C57.9894 12.4717 59.2318 13.6488 59.1636 16.3786H52.6996C52.8117 13.5055 54.1514 12.4717 56.0722 12.4717ZM93.821 8.89458C88.1331 8.89458 85.1387 12.1036 85.1387 17.8544C85.1387 25.7447 90.3004 27.0148 93.8305 27.0148C98.9984 27.0148 102.437 24.2293 102.437 17.926C102.437 11.3654 98.5707 8.89458 93.821 8.89458ZM93.7495 13.0306C96.2505 13.0306 97.2416 14.9046 97.2416 17.0378V18.8717C97.2416 21.4559 95.8548 22.9505 93.74 22.9505C91.7621 22.9505 90.372 21.5524 90.372 18.8717V17.0378C90.372 14.1788 92.0261 13.0306 93.7495 13.0306ZM112.898 8.89458C107.21 8.89458 104.216 12.1036 104.216 17.8544C104.216 25.7447 109.378 27.0148 112.908 27.0148C118.075 27.0148 121.514 24.2293 121.514 17.926C121.514 11.3654 117.648 8.89458 112.898 8.89458ZM112.827 13.0306C115.328 13.0306 116.319 14.9046 116.319 17.0378V18.8717C116.319 21.4559 114.932 22.9505 112.817 22.9505C110.839 22.9505 109.449 21.5524 109.449 18.8717V17.0378C109.449 14.1788 111.103 13.0306 112.827 13.0306ZM123.498 26.6643V0.529754L128.765 0.0713614V17.5884L133.99 9.24145H139.552L134.101 17.8864L139.762 26.6643H134.184L128.765 18.1409V26.6643H123.498Z" fill="white"/>
</svg>
