<svg width="123" height="51" viewBox="0 0 123 51" fill="none" xmlns="http://www.w3.org/2000/svg">
<path d="M65.4272 44.2453L63.9484 44.5072C63.8865 44.318 63.7883 44.1379 63.6537 43.967C63.5228 43.796 63.3445 43.6559 63.119 43.5468C62.8934 43.4377 62.6115 43.3831 62.2732 43.3831C61.8112 43.3831 61.4255 43.4868 61.1163 43.6941C60.8071 43.8978 60.6525 44.1616 60.6525 44.4853C60.6525 44.7655 60.7562 44.991 60.9635 45.162C61.1709 45.333 61.5056 45.473 61.9676 45.5822L63.299 45.8877C64.0702 46.066 64.645 46.3406 65.0234 46.7117C65.4017 47.0828 65.5909 47.5648 65.5909 48.1577C65.5909 48.6597 65.4453 49.1072 65.1543 49.5001C64.8669 49.8893 64.4649 50.1949 63.9484 50.4168C63.4354 50.6387 62.8407 50.7497 62.164 50.7497C61.2255 50.7497 60.4597 50.5496 59.8667 50.1494C59.2738 49.7456 58.91 49.1727 58.7754 48.4306L60.3524 48.1905C60.4506 48.6015 60.6525 48.9126 60.9581 49.1236C61.2637 49.3309 61.662 49.4346 62.1531 49.4346C62.6879 49.4346 63.1153 49.3236 63.4354 49.1017C63.7556 48.8762 63.9156 48.6015 63.9156 48.2778C63.9156 48.0159 63.8174 47.7958 63.621 47.6175C63.4282 47.4393 63.1317 47.3047 62.7315 47.2137L61.3128 46.9027C60.5306 46.7244 59.9522 46.4407 59.5775 46.0514C59.2065 45.6622 59.0209 45.1693 59.0209 44.5727C59.0209 44.0779 59.1592 43.645 59.4357 43.274C59.7121 42.9029 60.0941 42.6137 60.5816 42.4063C61.069 42.1953 61.6274 42.0898 62.2568 42.0898C63.1626 42.0898 63.8756 42.2863 64.3958 42.6792C64.916 43.0684 65.2598 43.5904 65.4272 44.2453Z" fill="white"/>
<path d="M48.2838 50.5808L45.8174 42.1992H47.5035L49.146 48.3544H49.2278L50.8758 42.1992H52.5619L54.1989 48.3271H54.2808L55.9123 42.1992H57.5985L55.1375 50.5808H53.4732L51.7707 44.5292H51.6452L49.9427 50.5808H48.2838Z" fill="white"/>
<path d="M41.0763 50.7497C40.2505 50.7497 39.5393 50.5732 38.9427 50.2204C38.3497 49.8639 37.8914 49.3637 37.5676 48.7198C37.2475 48.0722 37.0874 47.3138 37.0874 46.4443C37.0874 45.5858 37.2475 44.8291 37.5676 44.1743C37.8914 43.5195 38.3424 43.0084 38.9209 42.641C39.5029 42.2736 40.1832 42.0898 40.9617 42.0898C41.4346 42.0898 41.893 42.1681 42.3368 42.3245C42.7806 42.4809 43.1789 42.7265 43.5318 43.0611C43.8847 43.3958 44.163 43.8305 44.3667 44.3653C44.5704 44.8964 44.6723 45.5421 44.6723 46.3024V46.8809H38.0096V45.6585H43.0734C43.0734 45.2293 42.9861 44.8491 42.8115 44.5181C42.6369 44.1834 42.3913 43.9197 42.0749 43.7269C41.762 43.5341 41.3946 43.4377 40.9726 43.4377C40.5142 43.4377 40.1141 43.5504 39.7721 43.776C39.4338 43.9979 39.1719 44.2889 38.9863 44.6491C38.8045 45.0056 38.7135 45.393 38.7135 45.8113V46.7663C38.7135 47.3265 38.8117 47.803 39.0082 48.1959C39.2083 48.5888 39.4865 48.8889 39.8431 49.0963C40.1996 49.3 40.6161 49.4019 41.0926 49.4019C41.4019 49.4019 41.6838 49.3582 41.9384 49.2709C42.1931 49.18 42.4132 49.0454 42.5987 48.8671C42.7842 48.6888 42.9261 48.4688 43.0243 48.2068L44.5686 48.4851C44.4449 48.9399 44.223 49.3382 43.9029 49.6802C43.5864 50.0185 43.188 50.2822 42.7078 50.4714C42.2313 50.6569 41.6874 50.7497 41.0763 50.7497Z" fill="white"/>
<path d="M33.6361 50.5808V42.1993H35.2676V50.5808H33.6361ZM34.46 40.9061C34.1763 40.9061 33.9325 40.8115 33.7288 40.6223C33.5288 40.4295 33.4287 40.2003 33.4287 39.9348C33.4287 39.6656 33.5288 39.4364 33.7288 39.2472C33.9325 39.0544 34.1763 38.958 34.46 38.958C34.7438 38.958 34.9857 39.0544 35.1858 39.2472C35.3895 39.4364 35.4914 39.6656 35.4914 39.9348C35.4914 40.2003 35.3895 40.4295 35.1858 40.6223C34.9857 40.8115 34.7438 40.9061 34.46 40.9061Z" fill="white"/>
<path d="M32.1038 42.1992L29.0644 50.5808H27.3183L24.2734 42.1992H26.025L28.1477 48.6491H28.235L30.3522 42.1992H32.1038Z" fill="white"/>
<path d="M19.7677 50.7497C18.9419 50.7497 18.2307 50.5732 17.6341 50.2204C17.0411 49.8639 16.5828 49.3637 16.259 48.7198C15.9389 48.0722 15.7788 47.3138 15.7788 46.4443C15.7788 45.5858 15.9389 44.8291 16.259 44.1743C16.5828 43.5195 17.0339 43.0084 17.6123 42.641C18.1943 42.2736 18.8746 42.0898 19.6531 42.0898C20.126 42.0898 20.5844 42.1681 21.0282 42.3245C21.472 42.4809 21.8703 42.7265 22.2232 43.0611C22.5761 43.3958 22.8544 43.8305 23.0581 44.3653C23.2618 44.8964 23.3637 45.5421 23.3637 46.3024V46.8809H16.701V45.6585H21.7648C21.7648 45.2293 21.6775 44.8491 21.5029 44.5181C21.3283 44.1834 21.0828 43.9197 20.7663 43.7269C20.4534 43.5341 20.086 43.4377 19.664 43.4377C19.2056 43.4377 18.8055 43.5504 18.4635 43.776C18.1252 43.9979 17.8633 44.2889 17.6777 44.6491C17.4959 45.0056 17.4049 45.393 17.4049 45.8113V46.7663C17.4049 47.3265 17.5031 47.803 17.6996 48.1959C17.8997 48.5888 18.178 48.8889 18.5345 49.0963C18.891 49.3 19.3075 49.4019 19.784 49.4019C20.0933 49.4019 20.3752 49.3582 20.6298 49.2709C20.8845 49.18 21.1046 49.0454 21.2901 48.8671C21.4756 48.6888 21.6175 48.4688 21.7157 48.2068L23.26 48.4851C23.1363 48.9399 22.9144 49.3382 22.5943 49.6802C22.2778 50.0185 21.8794 50.2822 21.3992 50.4714C20.9227 50.6569 20.3788 50.7497 19.7677 50.7497Z" fill="white"/>
<path d="M6.48682 50.5807V39.4053H10.4702C11.336 39.4053 12.0545 39.5544 12.6256 39.8527C13.2004 40.151 13.6297 40.5639 13.9134 41.0914C14.1972 41.6152 14.3391 42.2209 14.3391 42.9085C14.3391 43.5924 14.1954 44.1945 13.908 44.7147C13.6242 45.2312 13.195 45.6332 12.6202 45.9206C12.049 46.208 11.3306 46.3517 10.4648 46.3517H7.4472V44.9002H10.312C10.8577 44.9002 11.3015 44.822 11.6434 44.6656C11.989 44.5091 12.2418 44.2818 12.4019 43.9835C12.562 43.6852 12.642 43.3268 12.642 42.9085C12.642 42.4865 12.5602 42.1209 12.3965 41.8117C12.2364 41.5025 11.9836 41.266 11.638 41.1023C11.296 40.935 10.8467 40.8513 10.2902 40.8513H8.17294V50.5807H6.48682ZM12.0036 45.5386L14.7647 50.5807H12.8439L10.1374 45.5386H12.0036Z" fill="white"/>
<path d="M113.036 50.5969C113.19 49.6749 113.19 48.9066 113.344 48.1383C113.497 47.6773 113.344 47.5237 113.036 47.2163C112.422 46.6017 111.961 46.1407 111.346 45.3724C112.268 45.2187 113.036 45.0651 113.805 44.9114C114.112 44.9114 114.265 44.7578 114.419 44.4504C114.88 43.6821 115.187 43.0675 115.648 42.1455C116.109 42.9138 116.417 43.5285 116.878 44.2968C117.031 44.6041 117.339 44.9114 117.8 44.9114C118.568 45.0651 119.336 45.2187 120.258 45.3724C119.644 45.987 119.183 46.6017 118.568 47.2163C118.261 47.5237 118.107 47.831 118.261 48.1383C118.414 48.9066 118.414 49.6749 118.568 50.5969C117.8 50.1359 117.031 49.8286 116.263 49.5213C115.956 49.3676 115.802 49.3676 115.495 49.5213C114.573 49.8286 113.805 50.2896 113.036 50.5969ZM109.656 45.3724C109.041 45.987 108.426 46.6017 107.965 47.2163C107.658 47.5237 107.658 47.6773 107.658 48.1383C107.812 48.9066 107.812 49.8286 107.965 50.5969C107.351 50.2896 106.736 50.1359 106.275 49.8286C105.66 49.3676 105.046 49.3676 104.277 49.8286C103.817 50.1359 103.202 50.2896 102.587 50.5969C102.741 49.6749 102.741 48.9066 102.895 47.9847C102.895 47.6773 102.895 47.37 102.587 47.2163C101.973 46.6017 101.512 45.987 100.897 45.3724C101.819 45.2187 102.587 45.0651 103.356 44.9114C103.663 44.9114 103.97 44.6041 104.124 44.2968C104.431 43.5285 104.892 42.9138 105.353 42.1455C105.814 42.9138 106.121 43.6821 106.582 44.2968C106.736 44.6041 106.89 44.7578 107.351 44.9114L109.656 45.3724ZM90.448 45.3724C91.3699 45.2187 92.1382 45.0651 92.9065 44.9114C93.2139 44.9114 93.5212 44.7578 93.6749 44.4504C93.9822 43.6821 94.4432 43.0675 94.9041 42.2992C95.3651 43.0675 95.6724 43.6821 96.1334 44.4504C96.2871 44.7578 96.5944 45.0651 97.0554 45.0651C97.8237 45.2187 98.592 45.3724 99.514 45.5261C98.8993 46.1407 98.2847 46.7554 97.8237 47.37C97.5164 47.6773 97.5164 47.831 97.5164 48.292C97.67 49.0603 97.67 49.9822 97.8237 50.7506C97.0554 50.4432 96.2871 49.9822 95.5188 49.6749C95.2115 49.5213 94.9041 49.5213 94.5968 49.6749C93.8285 49.9822 93.2139 50.2896 92.2919 50.7506C92.4456 49.8286 92.4456 49.0603 92.5992 48.1383C92.5992 47.831 92.5992 47.5237 92.2919 47.37C91.5236 46.7554 91.0626 46.1407 90.448 45.3724ZM79.999 45.3724C80.9209 45.2187 81.6892 45.0651 82.4576 44.9114C82.7649 44.9114 82.9185 44.7578 83.0722 44.4504C83.5332 43.6821 83.8405 43.0675 84.3015 42.1455C84.7625 42.9138 85.0698 43.6821 85.5308 44.2968C85.6844 44.6041 85.8381 44.7578 86.2991 44.7578C87.0674 44.9114 87.8357 45.0651 88.7577 45.2187C88.143 45.8334 87.682 46.448 87.0674 47.0627C86.7601 47.37 86.6064 47.6773 86.7601 47.9847C86.9137 48.753 86.9137 49.5213 87.0674 50.4432C86.2991 50.1359 85.5308 49.6749 84.7625 49.3676C84.4552 49.2139 84.3015 49.2139 83.9942 49.3676C83.2259 49.6749 82.4576 50.1359 81.6892 50.4432C81.8429 49.5213 81.8429 48.753 81.9966 47.9847C82.1502 47.5237 81.9966 47.37 81.6892 47.0627C81.0746 46.6017 80.6136 45.987 79.999 45.3724ZM76.6184 50.5969C75.8501 50.1359 75.0818 49.8286 74.3135 49.5213C74.0062 49.3676 73.6989 49.3676 73.3915 49.5213C72.6232 49.8286 71.8549 50.2896 71.0866 50.5969C71.2403 49.6749 71.2403 48.9066 71.3939 48.1383C71.3939 47.6773 71.3939 47.5237 71.0866 47.2163C70.6256 46.7554 70.1646 46.2944 69.7036 45.6797C69.3963 45.3724 69.55 45.3724 69.8573 45.2187C70.472 45.0651 71.2403 44.9114 71.8549 44.9114C72.1622 44.9114 72.4696 44.7578 72.6232 44.4504C72.9305 43.6821 73.3915 43.0675 73.8525 42.1455C74.3135 42.9138 74.7745 43.6821 75.0818 44.4504C75.2355 44.7578 75.3891 44.9114 75.8501 44.9114C76.6184 45.0651 77.3867 45.2187 78.3087 45.3724C77.6941 45.987 77.2331 46.6017 76.6184 47.0627C76.3111 47.37 76.1574 47.6773 76.3111 48.1383C76.4648 48.9066 76.6184 49.6749 76.6184 50.5969Z" fill="white"/>
<path d="M52.606 21.5011C52.606 27.379 48.0515 31.7102 42.4622 31.7102C36.8728 31.7102 32.3184 27.379 32.3184 21.5011C32.3184 15.5818 36.8728 11.292 42.4622 11.292C48.0515 11.292 52.606 15.5818 52.606 21.5011ZM48.1655 21.5011C48.1655 17.828 45.5258 15.3149 42.4622 15.3149C39.3985 15.3149 36.7588 17.828 36.7588 21.5011C36.7588 25.1374 39.3985 27.6873 42.4622 27.6873C45.5258 27.6873 48.1655 25.1328 48.1655 21.5011Z" fill="white"/>
<path d="M74.4893 21.5011C74.4893 27.379 69.9348 31.7102 64.3455 31.7102C58.7561 31.7102 54.2017 27.379 54.2017 21.5011C54.2017 15.5865 58.7561 11.292 64.3455 11.292C69.9348 11.292 74.4893 15.5818 74.4893 21.5011ZM70.0488 21.5011C70.0488 17.828 67.4091 15.3149 64.3455 15.3149C61.2818 15.3149 58.6421 17.828 58.6421 21.5011C58.6421 25.1374 61.2818 27.6873 64.3455 27.6873C67.4091 27.6873 70.0488 25.1328 70.0488 21.5011Z" fill="white"/>
<path d="M95.4606 11.9088V30.2373C95.4606 37.7768 91.0566 40.8561 85.8502 40.8561C80.9493 40.8561 77.9996 37.5466 76.8872 34.8402L80.7532 33.2154C81.4416 34.877 83.1285 36.8378 85.8457 36.8378C89.1783 36.8378 91.2435 34.7619 91.2435 30.8541V29.3858H91.0885C90.0947 30.624 88.1799 31.7056 85.7636 31.7056C80.7076 31.7056 76.0757 27.2593 76.0757 21.5379C76.0757 15.7752 80.7076 11.292 85.7636 11.292C88.1753 11.292 90.0901 12.3737 91.0885 13.575H91.2435V11.9134H95.4606V11.9088ZM91.5581 21.5379C91.5581 17.9431 89.1828 15.3149 86.1602 15.3149C83.0966 15.3149 80.5298 17.9431 80.5298 21.5379C80.5298 25.0959 83.0966 27.6873 86.1602 27.6873C89.1828 27.6873 91.5581 25.0959 91.5581 21.5379Z" fill="white"/>
<path d="M102.413 1.16504V31.0836H98.082V1.16504H102.413Z" fill="white"/>
<path d="M119.291 24.8609L122.737 27.1807C121.625 28.8424 118.944 31.7054 114.312 31.7054C108.568 31.7054 104.278 27.2222 104.278 21.4962C104.278 15.4251 108.604 11.2871 113.815 11.2871C119.063 11.2871 121.629 15.5033 122.468 17.7817L122.929 18.9416L109.411 24.5939C110.446 26.6422 112.056 27.6871 114.312 27.6871C116.573 27.6871 118.142 26.564 119.291 24.8609ZM108.682 21.1878L117.718 17.3997C117.221 16.1247 115.726 15.2364 113.966 15.2364C111.709 15.2364 108.568 17.2478 108.682 21.1878Z" fill="white"/>
<path d="M15.9246 18.8441V14.5128H30.3813C30.5226 15.2677 30.5955 16.1606 30.5955 17.1272C30.5955 20.3768 29.7156 24.3951 26.8799 27.2581C24.1217 30.1579 20.5976 31.7044 15.9292 31.7044C7.27618 31.7044 0 24.5884 0 15.8522C0 7.116 7.27618 0 15.9292 0C20.7162 0 24.1263 1.89637 26.6885 4.3681L23.6613 7.4244C21.824 5.68452 19.3348 4.33128 15.9246 4.33128C9.60584 4.33128 4.66387 9.47266 4.66387 15.8522C4.66387 22.2318 9.60584 27.3731 15.9246 27.3731C20.0232 27.3731 22.3574 25.7115 23.8528 24.2018C25.0655 22.9774 25.8633 21.2283 26.1779 18.8395L15.9246 18.8441Z" fill="white"/>
</svg>
