<svg width="158" height="37" viewBox="0 0 158 37" fill="none" xmlns="http://www.w3.org/2000/svg">
<path fill-rule="evenodd" clip-rule="evenodd" d="M19.8625 35.584H31.8094V15.3916L7.9157 8.50204V0H0V35.584H11.9468V24.3701H19.8625V35.584Z" fill="white"/>
<path fill-rule="evenodd" clip-rule="evenodd" d="M100.706 15.5391V26.4965C100.706 27.1195 100.816 27.7425 100.962 28.3655C101.145 28.9885 101.402 29.5382 101.805 30.0512C102.208 30.5643 102.721 31.004 103.308 31.2972C104.773 31.9202 106.422 31.9202 107.888 31.2972C108.475 31.004 108.988 30.5643 109.391 30.0512C109.757 29.5382 110.051 28.9518 110.234 28.3655C110.417 27.7791 110.49 27.1561 110.49 26.4965V15.5758H114.888V26.8996C114.888 29.7947 113.935 33.6426 109.281 35.365C106.936 36.2445 104.334 36.2445 101.988 35.365C98.2136 33.9358 96.3446 31.114 96.3446 26.8996V15.5025L100.706 15.5391ZM88.4656 18.1777C89.4184 19.1305 90.188 20.2665 90.701 21.5125C91.2507 22.7952 91.5439 24.1877 91.5073 25.617C91.5073 28.4021 90.4079 31.0773 88.4289 33.0563C87.4761 34.0091 86.3034 34.7787 85.0574 35.2917C82.3822 36.3911 79.3772 36.3911 76.7386 35.2917C75.4926 34.7787 74.3566 34.0091 73.3671 33.0563C71.3882 31.0773 70.2888 28.4021 70.2888 25.617C70.2888 24.2244 70.5453 22.8318 71.095 21.5125C72.7808 17.628 76.6287 15.0627 80.8797 15.0627C83.7382 15.026 86.45 16.1621 88.4656 18.1777ZM136.07 15.5758V19.3504L125.552 31.627H136.656V35.5849H119.945V31.7736L130.389 19.5336H120.312V15.5758H136.07ZM156.995 15.5758V19.3504L146.477 31.627H157.581V35.5849H140.87V31.7736L151.315 19.5336H141.237V15.5758H156.995ZM52.0754 8.50293V16.9317C54.4208 15.0261 58.0488 14.5496 60.9805 15.759C64.0589 17.0416 65.8179 19.8268 65.8179 23.4914V35.5849H61.3836V24.9573C61.3836 22.4653 60.101 19.5336 56.5463 19.5336C52.6617 19.5336 52.0754 22.9417 52.0754 24.9573V35.5849H47.6411V8.50293H52.0754ZM86.45 28.1456C86.9997 26.4965 86.9997 24.6641 86.45 23.015C86.1935 22.2821 85.7904 21.6225 85.2773 21.0361C84.7643 20.4864 84.1413 20.0467 83.4083 19.7535C81.8325 19.1305 80.0368 19.1305 78.461 19.7535C77.7647 20.0467 77.1417 20.4864 76.592 21.0361C76.079 21.6225 75.6759 22.2821 75.4193 23.015C74.8696 24.6641 74.8696 26.4965 75.4193 28.1456C75.6759 28.8785 76.079 29.5382 76.592 30.1245C77.1051 30.6742 77.7281 31.114 78.461 31.4071C80.0368 32.0301 81.8325 32.0301 83.4083 31.4071C84.1046 31.114 84.7276 30.6742 85.2773 30.1245C85.7904 29.5382 86.1935 28.8785 86.45 28.1456Z" fill="white"/>
</svg>
