<svg width="34" height="34" viewBox="0 0 34 34" fill="none" xmlns="http://www.w3.org/2000/svg">
<path d="M3.08925e-06 16.5962C3.49038e-06 7.41947 7.41948 -1.12657e-06 16.5962 -7.25442e-07C25.7729 -3.24315e-07 33.1924 7.41947 33.1924 16.5962C33.1924 25.7729 25.7729 33.1924 16.5962 33.1924C7.41948 33.1924 2.68813e-06 25.7729 3.08925e-06 16.5962ZM31.2399 16.5962C31.2399 8.49334 24.699 1.95249 16.5962 1.95249C8.49335 1.95249 1.9525 8.49334 1.9525 16.5962C1.9525 24.699 8.49335 31.2399 16.5962 31.2399C24.699 31.2399 31.2399 24.699 31.2399 16.5962Z" fill="#FFFFFF"/>
<path d="M14.9371 24.6974L23.0399 16.5946L14.9371 8.49175L16.3038 7.125L25.7734 16.5946L16.3038 26.0642L14.9371 24.6974Z" fill="#FFFFFF"/>
<path d="M24.4062 15.6191L24.4062 17.5716L7.81006 17.5716L7.81006 15.6191L24.4062 15.6191Z" fill="#FFFFFF"/>
</svg>
