<svg width="123" height="59" viewBox="0 0 123 59" fill="none" xmlns="http://www.w3.org/2000/svg">
<g clip-path="url(#clip0_51_60)">
<path d="M120.471 32.7628C119.687 32.1833 119.559 32.0946 114.851 30.5763C118.928 29.5946 119.103 29.49 119.826 29.0247C121.463 27.9384 122.337 26.1365 122.21 24.1846L122.194 23.9717C121.862 20.8388 117.741 14.928 114.966 13.6012C113.136 12.7455 111.1 12.8658 109.498 13.9206C108.743 14.4095 108.642 14.4766 105.543 18.6189C105.241 13.7786 104.659 5.24369 104.517 4.4452L104.486 4.26184L104.44 4.0844C103.91 2.20944 102.409 0.801732 100.419 0.312783C97.0992 -0.497533 88.3189 1.92552 85.9633 4.30325C84.58 5.71686 84.0485 7.61943 84.5256 9.4037L84.6223 9.75858L84.7853 10.0878C85.0109 10.5433 85.6048 11.5074 90.7007 19.3365L92.5792 22.2348C88.0169 20.407 87.8356 20.4012 86.8913 20.3933C85.0934 20.3163 83.2914 21.2588 82.2062 22.9227L82.186 22.9544C81.6263 23.8376 81.28 25.0383 81.0647 26.2961C79.5949 24.3561 77.3822 22.8006 74.0278 22.1559C71.6501 21.6886 69.4193 21.9704 67.3172 22.8025C65.3925 21.5999 62.7468 21.4598 60.5341 22.696C59.8516 23.0766 59.3403 23.5301 58.9395 24.013V21.3554L58.7281 19.7761L58.6637 19.4923C58.2188 17.7789 56.8979 16.3338 55.1303 15.6241L55.1141 15.6161C53.1733 14.8492 50.9968 15.0325 49.1505 16.1149C47.1833 17.2526 46.1746 19.1412 46.1746 21.7241V27.1439C45.474 26.0753 44.6082 25.1487 43.5835 24.3876C40.821 22.3372 37.1165 21.6452 32.8762 22.3904C30.418 22.8084 28.3622 23.8593 26.7334 25.401C26.7072 25.3517 26.6811 25.2906 26.6549 25.2413C25.8274 23.7902 24.4845 22.7926 22.7651 22.351C19.8939 21.5802 16.2497 22.5363 14.7457 27.5638C14.7457 27.5638 14.5021 28.3762 14.1679 29.4862C13.5095 28.3031 11.8022 25.0718 11.7317 24.9751C10.1935 22.692 7.11299 21.7024 4.35868 22.7749C1.69698 23.7567 0.156738 26.0498 0.156738 28.7449C0.156738 29.5946 0.307739 30.4798 0.62384 31.3788L0.702366 31.5976C0.702366 31.5976 6.17072 42.5044 7.75323 45.6609C5.21033 46.3174 3.39828 48.1747 3.10433 50.7219C3.07413 50.9644 3.05802 51.2089 3.05802 51.4494C3.05802 53.07 3.74459 54.6178 5.00498 55.7533C6.9177 57.4825 9.88945 58.0542 13.3786 57.3543C17.1698 56.6248 19.3504 54.3871 20.8786 49.6414L23.2039 42.4867C23.961 45.4992 25.3381 47.4669 26.6448 48.7287C28.5234 50.5485 31.9643 52.5614 37.6601 51.8083C41.8923 51.2286 44.8216 49.3734 46.4043 47.1928L46.5069 47.7193C46.9579 49.2749 48.1841 50.6569 49.831 51.3923C51.5524 52.173 53.5456 52.1591 55.2933 51.3568C56.2053 50.9684 56.9786 50.3552 57.5804 49.5882V51.8438C57.5804 55.572 59.7832 57.1572 61.0959 57.7722C62.8092 58.6161 64.861 58.6831 66.6468 57.9241C68.334 57.2084 69.5864 55.846 70.0776 54.1919L70.154 53.9375L70.3837 52.3998C70.3837 52.3998 70.3837 51.8063 70.3837 51.7392C72.6728 51.968 75.0628 51.6033 77.1667 50.5346C78.097 50.0615 78.9103 49.4917 79.6371 48.8371H81.1834C82.025 49.2709 82.9813 49.541 84.0101 49.541C85.043 49.541 85.9974 49.2709 86.837 48.8371H91.3208C94.2906 50.4734 98.6314 51.7137 100.955 51.3233C102.956 50.9762 104.533 49.7145 105.199 47.9459L105.233 47.8572C105.515 47.0529 105.561 46.9029 105.582 42.3585C108.127 46.3845 108.259 46.491 108.974 47.043C110.51 48.2161 112.53 48.4744 114.394 47.7389C117.388 46.5619 121.963 40.8681 122.422 37.743C122.46 37.471 122.482 37.195 122.482 36.9249C122.482 35.2885 121.761 33.7723 120.471 32.7628Z" stroke="#BDBCBC" stroke-width="0.639433" stroke-linecap="round" stroke-linejoin="round"/>
<path d="M74.0112 22.1523C74.0194 22.1565 74.0214 22.1565 74.0276 22.1565C74.0338 22.1604 74.0358 22.1604 74.044 22.1604L74.0112 22.1523Z" stroke="#BDBCBC" stroke-width="0.639433" stroke-linecap="round" stroke-linejoin="round"/>
<path d="M114.401 47.7393H114.394C114.39 47.7393 114.388 47.7456 114.381 47.7478L114.401 47.7393Z" stroke="#BDBCBC" stroke-width="0.639433" stroke-linecap="round" stroke-linejoin="round"/>
<path d="M85.4657 24.9597C84.7409 26.0972 84.4348 29.6796 84.6864 32.0573C84.775 32.842 84.9201 33.4965 85.1315 33.8869C85.4213 34.4271 85.9087 34.7485 86.4644 34.7682C86.8207 34.786 87.0422 34.7268 93.7427 32.6172C93.7427 32.6172 96.7204 31.6866 96.7326 31.6808C97.4755 31.4953 97.9748 30.8271 98.0232 29.9734C98.0714 29.0979 97.6104 28.3251 96.8493 28.0451C96.8493 28.0451 94.7494 27.2072 94.7453 27.2072C87.5454 24.2991 87.2213 24.1847 86.8589 24.1809C86.3032 24.1592 85.8099 24.4332 85.4657 24.9597Z" fill="white"/>
<path d="M101.572 46.627C101.689 46.2958 101.703 46.069 101.723 39.1765C101.723 39.1765 101.739 36.1305 101.741 36.1008C101.79 35.3537 101.296 34.6734 100.489 34.3698C99.6575 34.0564 98.7614 34.2495 98.2582 34.8627C98.2582 34.8627 96.7883 36.5701 96.7843 36.5701C91.7408 42.3724 91.5294 42.6406 91.4066 42.9836C91.3321 43.1848 91.302 43.4016 91.326 43.6165C91.3562 43.9241 91.4991 44.2277 91.7347 44.5116C92.9045 45.8719 98.5138 47.8928 100.306 47.5931C100.928 47.4827 101.381 47.1397 101.572 46.627Z" fill="white"/>
<path d="M112.952 44.2275C114.644 43.5671 118.332 38.9713 118.592 37.2029C118.683 36.5877 118.485 36.0573 118.052 35.7181C117.769 35.5092 117.553 35.4285 110.857 33.2755C110.857 33.2755 107.919 32.3251 107.881 32.3074C107.17 32.0372 106.359 32.2877 105.813 32.9461C105.245 33.6224 105.161 34.5156 105.614 35.1898L106.796 37.0746C110.77 43.3955 111.074 43.8431 111.36 44.0619C111.803 44.4029 112.367 44.4581 112.952 44.2275Z" fill="white"/>
<path d="M109.491 27.9543C117.102 26.1483 117.396 26.0538 117.696 25.8605C118.157 25.5568 118.388 25.0482 118.348 24.4291C118.348 24.4094 118.352 24.3878 118.348 24.3661C118.153 22.5365 114.879 17.7771 113.266 17.0043C112.695 16.7361 112.123 16.7538 111.648 17.0653C111.354 17.2526 111.138 17.5366 107.063 22.9938C107.063 22.9938 105.223 25.4484 105.201 25.4721C104.716 26.0498 104.708 26.8778 105.183 27.5875C105.674 28.323 106.504 28.6819 107.265 28.4748C107.265 28.4748 107.234 28.528 107.226 28.5379C107.601 28.3999 108.271 28.2383 109.491 27.9543Z" fill="white"/>
<path d="M101.852 21.8014C101.722 18.848 100.814 5.6976 100.707 5.08838C100.554 4.53634 100.113 4.14202 99.4808 3.98627C97.5378 3.51507 90.1125 5.55169 88.7373 6.94165C88.2943 7.39315 88.1313 7.94913 88.2642 8.44202C88.4817 8.87775 97.6808 23.0514 97.6808 23.0514C99.0397 25.2102 100.149 24.8751 100.514 24.7627C100.874 24.6543 101.977 24.3191 101.852 21.8014Z" fill="white"/>
<path d="M7.62153 52.9716C8.5799 53.8411 10.396 54.0874 12.6026 53.6478C14.6704 53.2476 15.9529 52.3427 17.1871 48.5L23.3339 29.5887C23.6522 28.5852 23.628 27.7137 23.2636 27.0671C22.9675 26.5467 22.4742 26.1936 21.7777 26.0123C20.6824 25.7185 19.3152 25.7482 18.4535 28.6306L15.2281 39.3578C15.2281 39.3578 8.65842 27.2051 8.65439 27.2031C8.23963 26.3909 7.02355 25.8092 5.78533 26.2903C4.17059 26.8915 3.63301 28.3131 4.27731 30.1447C4.27731 30.1447 12.2684 46.069 12.2865 46.1124C12.2865 46.1124 12.504 46.6802 12.504 46.773C12.504 46.773 12.5765 47.2047 12.5765 47.2206C12.5604 47.8336 12.351 48.3503 11.9765 48.6953C11.608 49.0343 11.0966 49.2118 10.4987 49.1881C10.4987 49.1881 9.25237 49.1606 9.15774 49.1606C7.87723 49.3143 7.07188 50.0339 6.94302 51.146C6.85242 51.8616 7.08798 52.4904 7.62153 52.9716Z" fill="white"/>
<path d="M39.1092 35.0402H30.5522C30.3207 34.8744 30.2079 34.5966 30.3811 33.7606C30.4898 33.321 30.6067 32.9266 30.9489 32.3746C31.0597 32.209 31.1744 32.0394 31.2851 31.8698C31.9113 31.095 32.7589 30.5982 33.7234 30.3774C36.7314 29.6578 38.8293 31.1542 39.1695 33.7074C39.3326 34.8212 39.2258 35.0402 39.1092 35.0402ZM44.3681 33.5811C44.0923 30.8485 43.0151 28.7153 41.2493 27.4082C39.3689 26.0104 36.7072 25.5648 33.5562 26.1168C29.6059 26.7872 27.2343 29.5512 26.6906 34.1213C26.0221 39.5846 26.9402 43.7013 29.3543 46.0297C31.1744 47.7903 33.8663 48.4902 37.1401 48.0564C41.8091 47.4137 43.9091 44.9039 43.9091 43.3167C43.9091 42.1497 43.1883 41.2308 42.1292 41.0909C41.5233 40.9726 41.0117 41.0909 39.8803 42.0826C38.2494 43.4745 36.3589 44.0345 34.6837 43.6184C33.4072 43.301 32.4107 42.4394 31.9597 41.2585C31.9597 41.2585 31.7583 40.4777 31.7703 40.5644C31.6335 39.8606 31.5711 39.1627 32.014 38.8787L32.1328 38.8H42.3889C43.3352 38.8 43.8144 38.6796 44.0902 38.3879C44.654 37.7747 44.6097 36.024 44.3681 33.5811Z" fill="white"/>
<path d="M53.6661 19.1294C52.8547 18.8061 51.9386 18.8929 51.1353 19.3621C50.3622 19.8097 50.04 20.4918 50.04 21.724V45.6707C50.04 45.6707 50.1748 46.5264 50.189 46.5639C50.3622 47.1613 50.8132 47.6699 51.4392 47.948C52.1339 48.2633 52.9352 48.2575 53.6519 47.9283C54.5439 47.5497 55.0693 46.6763 55.0693 45.5939V21.6018C55.0693 21.6018 54.9144 20.4426 54.9144 20.4209C54.7714 19.8649 54.3023 19.3838 53.6661 19.1294Z" fill="white"/>
<path d="M73.0184 43.4537C69.6318 43.4537 69.0922 40.5102 68.9855 38.2882C68.9794 38.2822 68.9412 36.9869 68.9412 36.9869C68.9412 36.9869 68.9794 36.0248 68.9794 35.9873C69.1989 32.1428 70.0104 30.6267 72.0821 30.2048C73.4733 29.8893 74.5365 30.043 75.3338 30.6721C76.5317 31.6165 77.0591 33.6155 77.0109 36.9514C76.9766 40.8571 76.2821 43.4537 73.0184 43.4537ZM73.2701 25.8712C71.0009 25.4177 69.0601 25.7983 67.1937 27.0364C67.1937 27.0364 66.9842 27.2021 66.9037 27.2493L66.7366 27.3322L66.2252 27.557L66.0802 26.995L65.9574 26.7919L65.9151 26.6658L65.9011 26.6283C65.9011 26.6283 65.7763 26.4647 65.758 26.439C65.2225 25.6228 63.7668 25.2483 62.4541 25.9817C61.8118 26.3384 61.4434 26.8412 61.4434 28.3416V51.8448C61.4434 53.1322 61.8561 53.9325 62.7581 54.3545C63.5193 54.7292 64.3749 54.7587 65.1098 54.4492C65.734 54.181 66.1929 53.7079 66.3641 53.1322L66.5151 52.1246V48.0573L66.4708 47.4027L66.4889 47.2096L66.5151 47.1169L66.7628 46.3421L67.5138 46.8311C67.5138 46.8311 67.703 46.9533 67.7835 47.036L68.0091 47.1819C68.0111 47.1839 68.2707 47.3319 68.2707 47.3319C68.2748 47.3319 68.5124 47.4461 68.5124 47.4461C70.5258 48.3767 73.2197 48.2683 75.3881 47.1741C78.1182 45.7782 79.4672 43.3019 79.7793 39.1439C80.4316 30.8337 78.4786 26.8629 73.2701 25.8712Z" fill="white"/>
<path d="M83.7923 45.2924H84.0722C84.2998 45.2924 84.5132 45.2806 84.5132 45.0302C84.5132 44.8054 84.3179 44.7818 84.1427 44.7818H83.7923V45.2924ZM83.5628 44.5806H84.1628C84.5555 44.5806 84.7386 44.7207 84.7386 45.0401C84.7386 45.3279 84.5514 45.4482 84.3059 45.4738L84.779 46.1816H84.5313L84.0843 45.4935H83.7923V46.1816H83.5628V44.5806ZM84.0924 46.5523C84.7548 46.5523 85.2883 46.0417 85.2883 45.3654C85.2883 44.7009 84.7548 44.1884 84.0924 44.1884C83.4279 44.1884 82.8944 44.7009 82.8944 45.3791C82.8944 46.0417 83.4279 46.5523 84.0924 46.5523ZM84.0924 43.9893C84.8656 43.9893 85.5158 44.5846 85.5158 45.3654C85.5158 46.1599 84.8656 46.7533 84.0924 46.7533C83.3173 46.7533 82.6689 46.1599 82.6689 45.3791C82.6689 44.5846 83.3173 43.9893 84.0924 43.9893Z" fill="white"/>
</g>
<defs>
<clipPath id="clip0_51_60">
<rect width="122.616" height="58.5833" fill="white"/>
</clipPath>
</defs>
</svg>
