<?xml version="1.0" encoding="utf-8"?>
<svg xmlns="http://www.w3.org/2000/svg" fill="none" height="100%" overflow="visible" preserveAspectRatio="none" style="display: block;" viewBox="0 0 8.27786 11.1754" width="100%">
<path d="M0 11.1754V0H3.98341C4.84921 0 5.56768 0.14915 6.13882 0.447452C6.71359 0.745753 7.14286 1.15865 7.42661 1.68613C7.71036 2.20998 7.85223 2.81568 7.85223 3.50322C7.85223 4.18713 7.70854 4.78919 7.42115 5.3094C7.1374 5.82597 6.70814 6.22795 6.13336 6.51534C5.56222 6.80272 4.84375 6.94642 3.97795 6.94642H0.960385V5.49493H3.82517C4.37084 5.49493 4.81465 5.41671 5.15661 5.26029C5.5022 5.10386 5.75503 4.8765 5.91509 4.5782C6.07516 4.2799 6.15519 3.92157 6.15519 3.50322C6.15519 3.08124 6.07334 2.71563 5.90964 2.40642C5.74957 2.0972 5.49675 1.86075 5.15115 1.69704C4.8092 1.5297 4.35992 1.44603 3.80334 1.44603H1.68612V11.1754H0ZM5.51675 6.13337L8.27786 11.1754H6.35709L3.65055 6.13337H5.51675Z" fill="var(--fill-0, white)" id="Vector"/>
</svg>