<?xml version="1.0" encoding="utf-8"?>
<svg xmlns="http://www.w3.org/2000/svg" fill="none" height="100%" overflow="visible" preserveAspectRatio="none" style="display: block;" viewBox="0 0 12.175 12.175" width="100%">
<g id="solar:cup-bold">
<path d="M11.1604 4.14051V4.17755C11.1604 4.61382 11.1604 4.83246 11.0554 5.01103C10.9504 5.18959 10.7591 5.29562 10.3777 5.50817L9.97538 5.73138C10.2524 4.79391 10.3452 3.78642 10.3792 2.92504L10.3843 2.81293L10.3853 2.78655C10.7155 2.9012 10.9012 2.98693 11.0169 3.14724C11.1604 3.3466 11.1604 3.61141 11.1604 4.14051ZM1.01458 4.14051V4.17755C1.01458 4.61382 1.01458 4.83246 1.11959 5.01103C1.2246 5.18959 1.41585 5.29562 1.79733 5.50817L2.20012 5.73138C1.92264 4.79391 1.8298 3.78642 1.79581 2.92504L1.79074 2.81293L1.79023 2.78655C1.45948 2.9012 1.27381 2.98693 1.15815 3.14724C1.01458 3.3466 1.01458 3.61192 1.01458 4.14051Z" fill="var(--fill-0, white)" id="Vector"/>
<path clip-rule="evenodd" d="M8.30792 1.19061C7.57395 1.07038 6.83124 1.0115 6.0875 1.01458C5.183 1.01458 4.43728 1.09423 3.86708 1.19061C3.28928 1.28801 3.00063 1.33671 2.75916 1.63399C2.5182 1.93126 2.53088 2.25238 2.55624 2.89461C2.644 5.10031 3.11984 7.85592 5.70703 8.09942V9.89219H4.9816C4.86437 9.89226 4.75078 9.93293 4.66015 10.0073C4.56952 10.0816 4.50744 10.1851 4.48446 10.3001L4.38807 10.7799H3.04375C2.94284 10.7799 2.84607 10.82 2.77472 10.8914C2.70337 10.9627 2.66328 11.0595 2.66328 11.1604C2.66328 11.2613 2.70337 11.3581 2.77472 11.4294C2.84607 11.5008 2.94284 11.5409 3.04375 11.5409H9.13125C9.23216 11.5409 9.32893 11.5008 9.40028 11.4294C9.47163 11.3581 9.51172 11.2613 9.51172 11.1604C9.51172 11.0595 9.47163 10.9627 9.40028 10.8914C9.32893 10.82 9.23216 10.7799 9.13125 10.7799H7.78693L7.69054 10.3001C7.66756 10.1851 7.60548 10.0816 7.51485 10.0073C7.42422 9.93293 7.31063 9.89226 7.1934 9.89219H6.46797V8.09942C9.05516 7.85592 9.5315 5.10082 9.61876 2.89461C9.64412 2.25238 9.65731 1.93075 9.41584 1.63399C9.17437 1.33671 8.88572 1.28801 8.30792 1.19061Z" fill="var(--fill-0, white)" fill-rule="evenodd" id="Vector_2"/>
</g>
</svg>