<?xml version="1.0" encoding="utf-8"?>
<svg xmlns="http://www.w3.org/2000/svg" fill="none" height="100%" overflow="visible" preserveAspectRatio="none" style="display: block;" viewBox="0 0 109.94 27.6133" width="100%">
<path clip-rule="evenodd" d="M53.0645 7.03617V17.9936C53.0645 18.6166 53.1744 19.2395 53.321 19.8625C53.5043 20.4855 53.7608 21.0352 54.1639 21.5483C54.567 22.0613 55.0801 22.5011 55.6664 22.7943C57.1323 23.4173 58.7814 23.4173 60.2473 22.7943C60.8336 22.5011 61.3467 22.0613 61.7498 21.5483C62.1162 21.0352 62.4094 20.4489 62.5926 19.8625C62.7759 19.2762 62.8492 18.6532 62.8492 17.9936V7.07282H67.2468V18.3967C67.2468 21.2918 66.294 25.1397 61.6398 26.8621C59.2944 27.7416 56.6925 27.7416 54.3471 26.8621C50.5725 25.4328 48.7035 22.611 48.7035 18.3967V6.99953L53.0645 7.03617ZM40.8245 9.67474C41.7773 10.6276 42.5469 11.7636 43.0599 13.0096C43.6096 14.2922 43.9028 15.6848 43.8662 17.114C43.8662 19.8992 42.7667 22.5744 40.7878 24.5533C39.835 25.5061 38.6623 26.2757 37.4163 26.7888C34.7411 27.8882 31.7361 27.8882 29.0975 26.7888C27.8515 26.2757 26.7155 25.5061 25.726 24.5533C23.7471 22.5744 22.6477 19.8992 22.6477 17.114C22.6477 15.7215 22.9042 14.3289 23.4539 13.0096C25.1397 9.12504 28.9876 6.55977 33.2386 6.55977C36.0971 6.52312 38.8089 7.65917 40.8245 9.67474ZM88.4286 7.07282V10.8474L77.911 23.1241H89.0149V27.0819H72.304V23.2707L82.7484 11.0307H72.6705V7.07282H88.4286ZM109.354 7.07282V10.8474L98.8363 23.1241H109.94V27.0819H93.2293V23.2707L103.674 11.0307H93.5958V7.07282H109.354ZM4.43426 0V8.42875C6.77965 6.52312 10.4077 6.04671 13.3394 7.25606C16.4177 8.53869 18.1768 11.3238 18.1768 14.9885V27.0819H13.7425V16.4544C13.7425 13.9624 12.4599 11.0307 8.90516 11.0307C5.02061 11.0307 4.43426 14.4388 4.43426 16.4544V27.0819H0V0H4.43426ZM38.8089 19.6427C39.3586 17.9936 39.3586 16.1612 38.8089 14.5121C38.5524 13.7792 38.1493 13.1195 37.6362 12.5332C37.1232 11.9835 36.5002 11.5437 35.7672 11.2506C34.1914 10.6276 32.3957 10.6276 30.8199 11.2506C30.1236 11.5437 29.5006 11.9835 28.9509 12.5332C28.4379 13.1195 28.0348 13.7792 27.7782 14.5121C27.2285 16.1612 27.2285 17.9936 27.7782 19.6427C28.0348 20.3756 28.4379 21.0352 28.9509 21.6216C29.464 22.1713 30.087 22.611 30.8199 22.9042C32.3957 23.5272 34.1914 23.5272 35.7672 22.9042C36.4635 22.611 37.0865 22.1713 37.6362 21.6216C38.1493 21.0352 38.5524 20.3756 38.8089 19.6427Z" fill="var(--fill-0, white)" fill-rule="evenodd" id="Vector"/>
</svg>