<?xml version="1.0" encoding="utf-8"?>
<svg xmlns="http://www.w3.org/2000/svg" fill="none" height="100%" overflow="visible" preserveAspectRatio="none" style="display: block;" viewBox="0 0 6.81546 8.65983" width="100%">
<path d="M6.65177 2.15541L5.17298 2.41733C5.11114 2.22816 5.01292 2.04809 4.87832 1.87711C4.74736 1.70614 4.5691 1.56608 4.34356 1.45695C4.11801 1.34781 3.83609 1.29325 3.49777 1.29325C3.03577 1.29325 2.65015 1.39692 2.34094 1.60428C2.03172 1.808 1.87712 2.07174 1.87712 2.3955C1.87712 2.67562 1.9808 2.90116 2.18816 3.07214C2.39551 3.24312 2.73019 3.38317 3.19219 3.49231L4.52363 3.79788C5.29485 3.97614 5.86963 4.25079 6.24796 4.62185C6.6263 4.99291 6.81546 5.47492 6.81546 6.06788C6.81546 6.5699 6.66995 7.01735 6.37893 7.41024C6.09154 7.79949 5.68955 8.10506 5.17298 8.32697C4.66005 8.54888 4.06527 8.65983 3.38864 8.65983C2.45008 8.65983 1.68431 8.45975 1.09135 8.05959C0.498382 7.65579 0.134599 7.08284 0 6.34072L1.577 6.10062C1.67522 6.5117 1.87712 6.82273 2.18269 7.03373C2.48827 7.24108 2.88662 7.34476 3.37772 7.34476C3.91248 7.34476 4.33993 7.2338 4.66006 7.0119C4.98019 6.78635 5.14025 6.5117 5.14025 6.18793C5.14025 5.92601 5.04202 5.70592 4.84558 5.52767C4.65278 5.34941 4.3563 5.21481 3.95614 5.12387L2.53739 4.81284C1.75526 4.63458 1.17684 4.35083 0.802142 3.96159C0.431084 3.57234 0.245559 3.07941 0.245559 2.48281C0.245559 1.98807 0.38379 1.55517 0.660264 1.18411C0.936739 0.813051 1.31872 0.523845 1.80618 0.316489C2.29365 0.105496 2.85205 0 3.48139 0C4.38721 0 5.10023 0.196441 5.62044 0.589326C6.14065 0.978572 6.48443 1.5006 6.65177 2.15541Z" fill="var(--fill-0, white)" id="Vector"/>
</svg>