<?xml version="1.0" encoding="utf-8"?>
<svg xmlns="http://www.w3.org/2000/svg" fill="none" height="100%" overflow="visible" preserveAspectRatio="none" style="display: block;" viewBox="0 0 50.7222 8.60505" width="100%">
<path d="M43.5001 8.45138C43.6537 7.52941 43.6537 6.76111 43.8074 5.9928C43.961 5.53182 43.8074 5.37816 43.5001 5.07084C42.8854 4.45619 42.4244 3.9952 41.8098 3.2269C42.7318 3.07323 43.5001 2.91957 44.2684 2.76591C44.5757 2.76591 44.7294 2.61225 44.883 2.30492C45.344 1.53662 45.6513 0.921969 46.1123 0C46.5733 0.768308 46.8806 1.38296 47.3416 2.15126C47.4953 2.45859 47.8026 2.76591 48.2636 2.76591C49.0319 2.91957 49.8002 3.07323 50.7222 3.2269C50.1075 3.84154 49.6465 4.45619 49.0319 5.07084C48.7246 5.37816 48.5709 5.68548 48.7246 5.9928C48.8782 6.76111 48.8782 7.52941 49.0319 8.45138C48.2636 7.9904 47.4953 7.68308 46.727 7.37576C46.4196 7.2221 46.266 7.2221 45.9586 7.37576C45.0367 7.68308 44.2684 8.14406 43.5001 8.45138ZM40.1195 3.2269C39.5049 3.84154 38.8902 4.45619 38.4292 5.07084C38.1219 5.37816 38.1219 5.53182 38.1219 5.9928C38.2756 6.76111 38.2756 7.68308 38.4292 8.45138C37.8146 8.14406 37.1999 7.9904 36.739 7.68308C36.1243 7.22209 35.5097 7.22209 34.7414 7.68308C34.2804 7.9904 33.6657 8.14406 33.0511 8.45138C33.2047 7.52941 33.2047 6.76111 33.3584 5.83914C33.3584 5.53182 33.3584 5.2245 33.0511 5.07084C32.4364 4.45619 31.9755 3.84154 31.3608 3.2269C32.2828 3.07323 33.0511 2.91957 33.8194 2.76591C34.1267 2.76591 34.434 2.45859 34.5877 2.15126C34.895 1.38296 35.356 0.768308 35.817 0C36.278 0.768308 36.5853 1.53662 37.0463 2.15126C37.1999 2.45859 37.3536 2.61225 37.8146 2.76591L40.1195 3.2269ZM20.9118 3.2269C21.8338 3.07323 22.6021 2.91957 23.3704 2.76591C23.6777 2.76591 23.9851 2.61225 24.1387 2.30492C24.446 1.53662 24.907 0.921973 25.368 0.153665C25.829 0.921973 26.1363 1.53662 26.5973 2.30492C26.751 2.61225 27.0583 2.91957 27.5193 2.91957C28.2876 3.07323 29.0559 3.22689 29.9778 3.38055C29.3632 3.9952 28.7486 4.60985 28.2876 5.22449C27.9803 5.53182 27.9803 5.68548 27.9803 6.14646C28.1339 6.91477 28.1339 7.83674 28.2876 8.60505C27.5193 8.29773 26.751 7.83674 25.9827 7.52942C25.6753 7.37576 25.368 7.37576 25.0607 7.52942C24.2924 7.83674 23.6777 8.14406 22.7558 8.60505C22.9094 7.68308 22.9094 6.91477 23.0631 5.9928C23.0631 5.68548 23.0631 5.37816 22.7558 5.22449C21.9875 4.60985 21.5265 3.9952 20.9118 3.2269ZM10.4628 3.2269C11.3848 3.07323 12.1531 2.91957 12.9214 2.76591C13.2287 2.76591 13.3824 2.61225 13.5361 2.30492C13.9971 1.53662 14.3044 0.921969 14.7654 0C15.2264 0.768308 15.5337 1.53662 15.9947 2.15126C16.1483 2.45859 16.302 2.61225 16.763 2.61225C17.5313 2.76591 18.2996 2.91957 19.2215 3.07323C18.6069 3.68788 18.1459 4.30252 17.5313 4.91717C17.2239 5.22449 17.0703 5.53182 17.2239 5.83914C17.3776 6.60745 17.3776 7.37576 17.5313 8.29772C16.763 7.9904 15.9947 7.52942 15.2263 7.22209C14.919 7.06843 14.7654 7.06843 14.458 7.22209C13.6897 7.52942 12.9214 7.9904 12.1531 8.29772C12.3068 7.37576 12.3068 6.60745 12.4604 5.83914C12.6141 5.37816 12.4604 5.22449 12.1531 4.91717C11.5385 4.45619 11.0775 3.84154 10.4628 3.2269ZM7.08228 8.45138C6.31398 7.9904 5.54567 7.68308 4.77736 7.37576C4.47004 7.2221 4.16272 7.2221 3.85539 7.37576C3.08709 7.68308 2.31878 8.14406 1.55047 8.45138C1.70413 7.52941 1.70413 6.76111 1.8578 5.9928C1.8578 5.53182 1.8578 5.37816 1.55047 5.07084C1.08949 4.60985 0.628501 4.14887 0.167516 3.53422C-0.139807 3.2269 0.013858 3.22689 0.321181 3.07323C0.935827 2.91957 1.70413 2.76591 2.31878 2.76591C2.6261 2.76591 2.93343 2.61225 3.08709 2.30492C3.39441 1.53662 3.85539 0.921969 4.31638 0C4.77736 0.768308 5.23835 1.53662 5.54567 2.30492C5.69933 2.61225 5.85299 2.76591 6.31398 2.76591C7.08228 2.91957 7.8506 3.07323 8.77257 3.2269C8.15792 3.84154 7.69693 4.45619 7.08228 4.91717C6.77496 5.22449 6.6213 5.53182 6.77496 5.9928C6.92862 6.76111 7.08228 7.52941 7.08228 8.45138Z" fill="var(--fill-0, white)" id="Vector"/>
</svg>