<?xml version="1.0" encoding="utf-8"?>
<svg xmlns="http://www.w3.org/2000/svg" fill="none" height="100%" overflow="visible" preserveAspectRatio="none" style="display: block;" viewBox="0 0 42.0342 14.9091" width="100%">
<g id="Top 5">
<path d="M0 2.02841V0H9.55682V2.02841H5.99432V11.6364H3.5625V2.02841H0Z" fill="var(--fill-0, white)"/>
<path d="M13.7628 11.8068C12.8802 11.8068 12.117 11.6193 11.473 11.2443C10.8329 10.8655 10.3385 10.339 9.99006 9.66477C9.64157 8.98674 9.46733 8.20076 9.46733 7.30682C9.46733 6.4053 9.64157 5.61742 9.99006 4.94318C10.3385 4.26515 10.8329 3.73864 11.473 3.36364C12.117 2.98485 12.8802 2.79545 13.7628 2.79545C14.6454 2.79545 15.4067 2.98485 16.0469 3.36364C16.6908 3.73864 17.187 4.26515 17.5355 4.94318C17.884 5.61742 18.0582 6.4053 18.0582 7.30682C18.0582 8.20076 17.884 8.98674 17.5355 9.66477C17.187 10.339 16.6908 10.8655 16.0469 11.2443C15.4067 11.6193 14.6454 11.8068 13.7628 11.8068ZM13.7741 9.93182C14.1757 9.93182 14.5109 9.81818 14.7798 9.59091C15.0488 9.35985 15.2514 9.04546 15.3878 8.64773C15.5279 8.25 15.598 7.79735 15.598 7.28977C15.598 6.7822 15.5279 6.32955 15.3878 5.93182C15.2514 5.53409 15.0488 5.2197 14.7798 4.98864C14.5109 4.75758 14.1757 4.64205 13.7741 4.64205C13.3688 4.64205 13.0279 4.75758 12.7514 4.98864C12.4787 5.2197 12.2723 5.53409 12.1321 5.93182C11.9957 6.32955 11.9276 6.7822 11.9276 7.28977C11.9276 7.79735 11.9957 8.25 12.1321 8.64773C12.2723 9.04546 12.4787 9.35985 12.7514 9.59091C13.0279 9.81818 13.3688 9.93182 13.7741 9.93182Z" fill="var(--fill-0, white)"/>
<path d="M19.6321 14.9091V2.90909H22.0185V4.375H22.1264C22.2325 4.14015 22.3859 3.90152 22.5866 3.65909C22.7912 3.41288 23.0563 3.20833 23.3821 3.04545C23.7116 2.87879 24.1207 2.79545 24.6094 2.79545C25.2457 2.79545 25.8329 2.96212 26.3707 3.29545C26.9086 3.625 27.3385 4.12311 27.6605 4.78977C27.9825 5.45265 28.1435 6.28409 28.1435 7.28409C28.1435 8.25758 27.9863 9.07955 27.6719 9.75C27.3613 10.4167 26.937 10.9223 26.3991 11.267C25.8651 11.608 25.2666 11.7784 24.6037 11.7784C24.134 11.7784 23.7344 11.7008 23.4048 11.5455C23.0791 11.3902 22.812 11.1951 22.6037 10.9602C22.3954 10.7216 22.2363 10.4811 22.1264 10.2386H22.0526V14.9091H19.6321ZM22.0014 7.27273C22.0014 7.79167 22.0734 8.24432 22.2173 8.63068C22.3613 9.01705 22.5696 9.31818 22.8423 9.53409C23.1151 9.74621 23.4465 9.85227 23.8366 9.85227C24.2306 9.85227 24.5639 9.74432 24.8366 9.52841C25.1094 9.30871 25.3158 9.00568 25.456 8.61932C25.5999 8.22917 25.6719 7.7803 25.6719 7.27273C25.6719 6.76894 25.6018 6.32576 25.4616 5.94318C25.3215 5.56061 25.1151 5.26136 24.8423 5.04545C24.5696 4.82955 24.2344 4.72159 23.8366 4.72159C23.4427 4.72159 23.1094 4.82576 22.8366 5.03409C22.5677 5.24242 22.3613 5.53788 22.2173 5.92045C22.0734 6.30303 22.0014 6.75379 22.0014 7.27273Z" fill="var(--fill-0, white)"/>
<path d="M37.6875 11.7955C36.8845 11.7955 36.1686 11.6477 35.5398 11.3523C34.9148 11.0568 34.4186 10.6496 34.0511 10.1307C33.6837 9.61174 33.4924 9.01705 33.4773 8.34659H35.8636C35.8902 8.79735 36.0795 9.16288 36.4318 9.44318C36.7841 9.72349 37.2027 9.86364 37.6875 9.86364C38.0739 9.86364 38.4148 9.77841 38.7102 9.60795C39.0095 9.43371 39.2424 9.19318 39.4091 8.88636C39.5795 8.57576 39.6648 8.2197 39.6648 7.81818C39.6648 7.40909 39.5777 7.04924 39.4034 6.73864C39.233 6.42803 38.9962 6.18561 38.6932 6.01136C38.3902 5.83712 38.0436 5.74811 37.6534 5.74432C37.3125 5.74432 36.9811 5.81439 36.6591 5.95455C36.3409 6.0947 36.0928 6.28599 35.9148 6.52841L33.7273 6.13636L34.2784 0H41.392V2.01136H36.3068L36.0057 4.92614H36.0739C36.2784 4.63826 36.5871 4.39962 37 4.21023C37.4129 4.02083 37.875 3.92614 38.3864 3.92614C39.0871 3.92614 39.7121 4.09091 40.2614 4.42045C40.8106 4.75 41.2443 5.20265 41.5625 5.77841C41.8807 6.35038 42.0379 7.00947 42.0341 7.75568C42.0379 8.53977 41.8561 9.23674 41.4886 9.84659C41.125 10.4527 40.6155 10.9299 39.9602 11.2784C39.3087 11.6231 38.5511 11.7955 37.6875 11.7955Z" fill="var(--fill-0, white)"/>
</g>
</svg>