<?xml version="1.0" encoding="utf-8"?>
<svg xmlns="http://www.w3.org/2000/svg" fill="none" height="100%" overflow="visible" preserveAspectRatio="none" style="display: block;" viewBox="0 0 166.997 23.883" width="100%">
<path d="M10.3035 0.162028C16.1683 -0.797275 21.8587 2.58209 23.8209 8.20709C24.3224 9.64604 24.5404 11.1722 24.4968 12.6984C22.2512 10.4309 20.0055 8.16349 17.7599 5.87424C16.4081 7.24779 15.0782 8.59953 13.7265 9.97308C13.7265 9.14459 13.7265 8.3161 13.7265 7.46581H8.88634C8.88634 9.86407 8.88634 12.2623 8.88634 14.6606C7.92704 15.6417 6.94593 16.6228 5.96483 17.6257C6.92413 17.6257 7.90523 17.6257 8.86454 17.6257C8.86454 19.7187 8.86454 21.7899 8.86454 23.883C6.50989 23.2071 4.39506 21.8336 2.80349 19.9585C-1.49157 14.7914 -0.772094 7.11697 4.41686 2.82191C6.13924 1.42657 8.14506 0.510865 10.3035 0.162028ZM119.773 5.24198C122.193 4.87134 124.853 5.54721 126.575 7.3132C129.148 9.86407 129.257 14.399 126.859 17.1024C124.09 20.3292 118.552 20.4818 115.565 17.4731C113.254 15.2056 112.862 11.3248 114.584 8.59953C115.761 6.78994 117.636 5.54721 119.773 5.24198ZM120.122 7.46581C118.901 7.68383 117.833 8.40331 117.135 9.42802C115.696 11.4774 115.979 14.5516 117.876 16.2085C119.577 17.8655 122.564 17.8655 124.286 16.2303C126.445 14.3335 126.466 10.6271 124.395 8.68674C123.283 7.57482 121.626 7.16058 120.122 7.46581ZM138.785 5.24198C141.139 4.84953 143.69 5.46 145.456 7.09517C147.898 9.34081 148.356 13.3306 146.633 16.1431C145.652 17.7347 144.104 18.8684 142.295 19.3263C140.071 19.9149 137.542 19.5879 135.645 18.258C134.053 17.146 132.985 15.4237 132.702 13.5051C132.418 11.6955 132.833 9.84226 133.857 8.3161C135.013 6.68092 136.779 5.56901 138.785 5.24198ZM139.591 7.4004C138.458 7.50942 137.411 8.05447 136.648 8.90476C134.773 10.8888 134.882 14.3553 136.91 16.1867C138.61 17.8655 141.597 17.8873 143.341 16.2522C145.369 14.4862 145.565 11.1286 143.843 9.07918C142.796 7.83645 141.205 7.20418 139.591 7.4004ZM27.2657 5.37278C28.8573 5.37278 30.4488 5.37278 32.0622 5.37278C33.3049 5.39459 34.6131 5.59081 35.6596 6.31029C37.2512 7.3786 37.5128 9.95128 36.1393 11.303C35.6814 11.7173 35.1581 12.0443 34.5695 12.2623C35.507 12.5458 36.4663 13.0254 36.9895 13.8975C37.7526 15.1838 37.4256 16.9716 36.2919 17.9745C35.0927 19.0429 33.4358 19.3917 31.866 19.4353C30.3398 19.4571 28.7919 19.4353 27.2657 19.4353C27.2657 14.726 27.2657 10.0385 27.2657 5.37278ZM29.7512 7.64023C29.7512 8.90477 29.7512 10.1911 29.7512 11.4556C30.8631 11.412 32.0404 11.5865 33.1087 11.194C33.9154 10.9106 34.5259 10.1039 34.4387 9.21C34.3951 8.51232 33.7846 7.96726 33.1305 7.79284C32.0186 7.53122 30.8631 7.68384 29.7512 7.64023ZM29.7512 13.2434C29.7512 14.5298 29.7512 15.8379 29.7512 17.1242C31.1247 17.0588 32.6073 17.3641 33.8718 16.6882C34.8965 16.1649 35.0491 14.5298 34.068 13.8757C32.7817 13.0472 31.1901 13.2652 29.7512 13.2434ZM42.3093 5.37278C43.1378 5.37278 43.9663 5.37278 44.7948 5.37278V13.3524C44.7948 14.3335 44.882 15.3583 45.4488 16.1867C45.9285 16.9062 46.7788 17.2769 47.6291 17.3423C48.6756 17.4513 49.8529 17.2769 50.616 16.492C51.3791 15.7071 51.5535 14.5516 51.5753 13.5051C51.5753 10.7798 51.5753 8.05448 51.5753 5.35099H54.0608C54.0608 8.11988 54.0608 10.8888 54.0608 13.6577C54.0608 15.2274 53.6683 16.9062 52.5346 18.0617C51.4009 19.2173 49.7221 19.6533 48.1305 19.6315C46.539 19.6097 44.8602 19.2173 43.7701 18.0181C42.68 16.819 42.3311 15.1838 42.3093 13.6359C42.3093 10.9106 42.3093 8.14168 42.3093 5.37278ZM59.7512 5.35099C60.5797 5.32918 61.4081 5.35099 62.2366 5.35099V19.3917H59.7512C59.7512 14.7042 59.7512 10.0385 59.7512 5.35099ZM68.1015 5.35099C68.9299 5.35099 69.7584 5.35099 70.5869 5.35099C70.5869 9.27541 70.5869 13.1998 70.5869 17.1242C72.8108 17.1242 75.0346 17.1242 77.2584 17.1242C77.2584 17.8873 77.2584 18.6286 77.2584 19.3917H68.1015C68.1015 14.726 68.1015 10.0603 68.1015 5.35099ZM81.3137 5.37278C83.1451 5.37278 84.9983 5.35098 86.8297 5.37278C88.9445 5.39459 91.1029 6.22308 92.5201 7.83645C94.6131 10.1911 94.7221 14.0283 92.7817 16.5356C91.4082 18.367 89.0971 19.3699 86.8297 19.3917C84.9983 19.4135 83.1451 19.3917 81.3137 19.3917C81.3355 14.726 81.3355 10.0385 81.3137 5.37278ZM83.8209 17.1242C84.8238 17.1242 85.8268 17.146 86.8297 17.1242C88.5739 17.1024 90.1654 16.1213 90.9721 14.5952C92.084 12.5022 91.3645 9.55883 89.2715 8.35971C87.6363 7.335 85.6305 7.72744 83.8209 7.66203C83.8427 10.8016 83.8427 13.9629 83.8209 17.1242ZM98.4067 5.37278H109.722C109.7 5.67802 109.809 6.02686 109.591 6.31029C107.04 9.92948 104.511 13.5487 101.96 17.146H109.504C109.504 17.9091 109.504 18.6722 109.504 19.4135H97.8616C97.8834 19.1083 97.7744 18.7594 97.9707 18.4978C100.5 14.8786 103.029 11.2812 105.558 7.64023C103.16 7.64023 100.783 7.64023 98.3849 7.64023V5.35099M152.804 5.30738C153.174 5.30738 153.545 5.30738 153.915 5.30738C155.878 8.70854 157.818 12.1315 159.78 15.5327C161.677 12.1315 163.596 8.73035 165.492 5.30738C165.863 5.30738 166.234 5.30738 166.604 5.30738C166.735 9.99488 166.866 14.7042 166.997 19.4135H164.555C164.533 16.7318 164.511 14.0283 164.49 11.3466C163.029 14.0719 161.59 16.7972 160.129 19.5225H159.257C157.796 16.8408 156.335 14.1591 154.875 11.4774C154.853 14.1155 154.853 16.7536 154.831 19.4135C154.024 19.4135 153.218 19.4135 152.411 19.4135C152.52 14.7042 152.651 10.0167 152.804 5.30738Z" fill="var(--fill-0, white)" id="Vector"/>
</svg>