<?xml version="1.0" encoding="utf-8"?>
<svg xmlns="http://www.w3.org/2000/svg" fill="none" height="100%" overflow="visible" preserveAspectRatio="none" style="display: block;" viewBox="0 0 18.6509 20.4182" width="100%">
<path d="M15.0128 13.5738L18.4594 15.8936C17.347 17.5553 14.6663 20.4182 10.0344 20.4182C4.29004 20.4182 0 15.9351 0 10.2091C0 4.13796 4.3265 0 9.53745 0C14.7849 0 17.3516 4.21621 18.1905 6.49462L18.6509 7.65454L5.13345 13.3068C6.16835 15.3551 7.77768 16.4 10.0344 16.4C12.2957 16.4 13.864 15.2769 15.0128 13.5738ZM4.40401 9.90073L13.44 6.11258C12.943 4.83759 11.4477 3.94924 9.6879 3.94924C7.43119 3.94924 4.29003 5.96069 4.40401 9.90073Z" fill="var(--fill-0, white)" id="Vector"/>
</svg>