<?xml version="1.0" encoding="utf-8"?>
<svg xmlns="http://www.w3.org/2000/svg" fill="none" height="100%" overflow="visible" preserveAspectRatio="none" style="display: block;" viewBox="0 0 19.3849 29.5641" width="100%">
<path d="M19.3849 0.616782V18.9453C19.3849 26.4848 14.9809 29.5641 9.77452 29.5641C4.87359 29.5641 1.9239 26.2547 0.811504 23.5482L4.67755 21.9234C5.36596 23.585 7.0528 25.5458 9.76997 25.5458C13.1026 25.5458 15.1678 23.4699 15.1678 19.5621V18.0938H15.0128C14.019 19.332 12.1042 20.4136 9.6879 20.4136C4.63196 20.4136 0 15.9673 0 10.2459C0 4.48318 4.63196 0 9.6879 0C12.0996 0 14.0144 1.08167 15.0128 2.28301H15.1678V0.621384H19.3849V0.616782ZM15.4824 10.2459C15.4824 6.65112 13.1072 4.02289 10.0845 4.02289C7.02088 4.02289 4.45416 6.65112 4.45416 10.2459C4.45416 13.8039 7.02088 16.3954 10.0845 16.3954C13.1072 16.3954 15.4824 13.8039 15.4824 10.2459Z" fill="var(--fill-0, white)" id="Vector"/>
</svg>