<?xml version="1.0" encoding="utf-8"?>
<svg xmlns="http://www.w3.org/2000/svg" fill="none" height="100%" overflow="visible" preserveAspectRatio="none" style="display: block;" viewBox="0 0 122.616 58.5833" width="100%">
<g clip-path="url(#clip0_0_8)" id="YELP SVG 1">
<g id="Vector">
</g>
<path d="M120.47 32.7629C119.687 32.1834 119.558 32.0946 114.851 30.5764C118.928 29.5946 119.103 29.4901 119.826 29.0248C121.463 27.9385 122.337 26.1365 122.21 24.1847L122.194 23.9717C121.862 20.8388 117.74 14.9281 114.966 13.6012C113.136 12.7456 111.1 12.8658 109.497 13.9206C108.742 14.4096 108.642 14.4766 105.543 18.619C105.241 13.7787 104.659 5.24374 104.516 4.44525L104.486 4.26189L104.44 4.08445C103.91 2.20949 102.408 0.801787 100.419 0.312838C97.099 -0.497478 88.3187 1.92557 85.9631 4.3033C84.5798 5.71691 84.0483 7.61948 84.5254 9.40375L84.6221 9.75864L84.7851 10.0879C85.0107 10.5433 85.6046 11.5074 90.7005 19.3366L92.579 22.2348C88.0166 20.407 87.8354 20.4012 86.8911 20.3934C85.0932 20.3163 83.2912 21.2589 82.2059 22.9227L82.1858 22.9544C81.6261 23.8376 81.2798 25.0384 81.0645 26.2961C79.5947 24.3561 77.3819 22.8007 74.0276 22.1559C71.6499 21.6887 69.4191 21.9705 67.317 22.8025C65.3922 21.5999 62.7466 21.4599 60.5339 22.6961C59.8514 23.0767 59.3401 23.5301 58.9393 24.0131V21.3555L58.7279 19.7762L58.6635 19.4923C58.2186 17.7789 56.8977 16.3339 55.1301 15.6241L55.1139 15.6161C53.1731 14.8492 50.9965 15.0326 49.1503 16.1149C47.1831 17.2526 46.1744 19.1413 46.1744 21.7242V27.144C45.4738 26.0753 44.608 25.1488 43.5832 24.3876C40.8208 22.3372 37.1163 21.6453 32.876 22.3904C30.4178 22.8085 28.362 23.8593 26.7332 25.4011C26.707 25.3517 26.6809 25.2907 26.6547 25.2413C25.8271 23.7903 24.4843 22.7927 22.7649 22.3511C19.8937 21.5803 16.2495 22.5363 14.7455 27.5639C14.7455 27.5639 14.5019 28.3762 14.1677 29.4862C13.5093 28.3032 11.8019 25.0719 11.7315 24.9752C10.1933 22.6921 7.11278 21.7025 4.35847 22.775C1.69676 23.7568 0.156524 26.0498 0.156524 28.7449C0.156524 29.5946 0.307524 30.4798 0.623626 31.3789L0.702152 31.5977C0.702152 31.5977 6.1705 42.5045 7.75302 45.6609C5.21012 46.3175 3.39807 48.1748 3.10412 50.722C3.07392 50.9645 3.0578 51.2089 3.0578 51.4494C3.0578 53.0701 3.74437 54.6178 5.00476 55.7534C6.91748 57.4826 9.88924 58.0543 13.3784 57.3543C17.1696 56.6249 19.3502 54.3872 20.8783 49.6415L23.2037 42.4868C23.9608 45.4993 25.3379 47.467 26.6446 48.7288C28.5231 50.5485 31.964 52.5614 37.6599 51.8083C41.892 51.2286 44.8214 49.3735 46.404 47.1928L46.5067 47.7193C46.9577 49.2749 48.1839 50.6569 49.8307 51.3924C51.5522 52.173 53.5454 52.1592 55.2931 51.3569C56.2051 50.9685 56.9784 50.3553 57.5802 49.5883V51.8438C57.5802 55.5721 59.7829 57.1572 61.0957 57.7723C62.809 58.6161 64.8607 58.6832 66.6466 57.9242C68.3338 57.2084 69.5861 55.8461 70.0774 54.1919L70.1538 53.9376L70.3835 52.3998C70.3835 52.3998 70.3835 51.8063 70.3835 51.7393C72.6726 51.9681 75.0625 51.6033 77.1665 50.5347C78.0967 50.0616 78.9101 49.4917 79.6369 48.8372H81.1832C82.0248 49.2709 82.9811 49.5411 84.0099 49.5411C85.0428 49.5411 85.9972 49.2709 86.8368 48.8372H91.3206C94.2903 50.4735 98.6312 51.7137 100.955 51.3233C102.956 50.9763 104.532 49.7145 105.199 47.946L105.233 47.8572C105.515 47.0529 105.561 46.903 105.581 42.3586C108.126 46.3845 108.259 46.4911 108.974 47.0431C110.51 48.2161 112.53 48.4744 114.394 47.739C117.388 46.562 121.962 40.8681 122.421 37.7431C122.46 37.4711 122.482 37.1951 122.482 36.9249C122.482 35.2886 121.761 33.7723 120.47 32.7629Z" id="Vector_2" stroke="var(--stroke-0, #BDBCBC)" stroke-linecap="round" stroke-width="0.639433"/>
<path d="M74.0111 22.1522C74.0193 22.1563 74.0213 22.1563 74.0275 22.1563C74.0337 22.1603 74.0357 22.1603 74.0439 22.1603L74.0111 22.1522Z" id="Vector_3" stroke="var(--stroke-0, #BDBCBC)" stroke-linecap="round" stroke-width="0.639433"/>
<path d="M114.401 47.7395H114.394C114.39 47.7395 114.388 47.7458 114.382 47.748L114.401 47.7395Z" id="Vector_4" stroke="var(--stroke-0, #BDBCBC)" stroke-linecap="round" stroke-width="0.639433"/>
<g id="Vector_5">
</g>
<g id="Vector_6">
</g>
<g id="Vector_7">
</g>
<g id="Vector_8">
</g>
<g id="Vector_9">
</g>
<path d="M85.4657 24.9598C84.7409 26.0973 84.4348 29.6797 84.6865 32.0575C84.7751 32.8421 84.9201 33.4967 85.1315 33.8871C85.4214 34.4272 85.9087 34.7486 86.4644 34.7683C86.8207 34.7861 87.0422 34.7269 93.7427 32.6173C93.7427 32.6173 96.7205 31.6867 96.7326 31.6809C97.4755 31.4955 97.9749 30.8272 98.0232 29.9735C98.0714 29.098 97.6105 28.3252 96.8493 28.0452C96.8493 28.0452 94.7494 27.2073 94.7454 27.2073C87.5455 24.2992 87.2213 24.1849 86.8589 24.181C86.3032 24.1593 85.81 24.4333 85.4657 24.9598Z" fill="var(--fill-0, white)" id="Vector_10"/>
<path d="M101.572 46.6272C101.689 46.296 101.703 46.0692 101.723 39.1767C101.723 39.1767 101.739 36.1307 101.741 36.101C101.79 35.3539 101.296 34.6736 100.489 34.3699C99.6575 34.0566 98.7614 34.2497 98.2581 34.8629C98.2581 34.8629 96.7883 36.5703 96.7843 36.5703C91.7408 42.3726 91.5294 42.6408 91.4066 42.9838C91.332 43.185 91.3019 43.4018 91.326 43.6167C91.3562 43.9243 91.4991 44.2279 91.7347 44.5118C92.9045 45.8721 98.5138 47.893 100.306 47.5933C100.928 47.4829 101.381 47.1399 101.572 46.6272Z" fill="var(--fill-0, white)" id="Vector_11"/>
<path d="M112.952 44.2278C114.643 43.5674 118.332 38.9716 118.592 37.2032C118.682 36.588 118.485 36.0577 118.052 35.7185C117.768 35.5095 117.553 35.4288 110.856 33.2758C110.856 33.2758 107.919 32.3254 107.881 32.3078C107.17 32.0376 106.358 32.2881 105.813 32.9465C105.245 33.6227 105.161 34.5159 105.614 35.1902L106.795 37.075C110.77 43.3958 111.074 43.8434 111.36 44.0622C111.803 44.4033 112.366 44.4585 112.952 44.2278Z" fill="var(--fill-0, white)" id="Vector_12"/>
<path d="M109.491 27.9545C117.102 26.1486 117.396 26.054 117.696 25.8607C118.157 25.5571 118.388 25.0484 118.348 24.4294C118.348 24.4097 118.352 24.388 118.348 24.3663C118.153 22.5367 114.879 17.7773 113.266 17.0045C112.694 16.7364 112.123 16.754 111.648 17.0656C111.354 17.2528 111.138 17.5368 107.063 22.994C107.063 22.994 105.223 25.4487 105.201 25.4723C104.716 26.05 104.707 26.878 105.183 27.5878C105.674 28.3232 106.503 28.6821 107.264 28.475C107.264 28.475 107.234 28.5282 107.226 28.5382C107.601 28.4001 108.271 28.2385 109.491 27.9545Z" fill="var(--fill-0, white)" id="Vector_13"/>
<path d="M101.852 21.8012C101.721 18.8477 100.814 5.69735 100.707 5.08813C100.554 4.53609 100.113 4.14177 99.4807 3.98603C97.5377 3.51482 90.1124 5.55144 88.7373 6.94141C88.2942 7.3929 88.1312 7.94889 88.2641 8.44177C88.4816 8.8775 97.6808 23.0511 97.6808 23.0511C99.0397 25.2099 100.149 24.8749 100.514 24.7625C100.874 24.6541 101.977 24.3189 101.852 21.8012Z" fill="var(--fill-0, white)" id="Vector_14"/>
<path d="M7.62151 52.9718C8.57988 53.8413 10.396 54.0876 12.6026 53.648C14.6704 53.2478 15.9529 52.3429 17.187 48.5002L23.3339 29.5889C23.6522 28.5854 23.628 27.7139 23.2636 27.0673C22.9675 26.5469 22.4742 26.1938 21.7777 26.0125C20.6824 25.7187 19.3152 25.7484 18.4534 28.6308L15.2281 39.358C15.2281 39.358 8.6584 27.2053 8.65437 27.2033C8.23961 26.3911 7.02353 25.8094 5.78531 26.2905C4.17057 26.8917 3.63299 28.3133 4.27729 30.1449C4.27729 30.1449 12.2684 46.0692 12.2865 46.1126C12.2865 46.1126 12.504 46.6804 12.504 46.7732C12.504 46.7732 12.5765 47.2049 12.5765 47.2208C12.5603 47.8338 12.351 48.3504 11.9765 48.6955C11.608 49.0345 11.0966 49.212 10.4986 49.1883C10.4986 49.1883 9.25235 49.1608 9.15772 49.1608C7.87721 49.3145 7.07186 50.0341 6.943 51.1461C6.8524 51.8618 7.08796 52.4906 7.62151 52.9718Z" fill="var(--fill-0, white)" id="Vector_15"/>
<path d="M39.1093 35.0406H30.5524C30.3209 34.8749 30.2081 34.597 30.3813 33.761C30.49 33.3214 30.6069 32.927 30.9491 32.375C31.0599 32.2094 31.1745 32.0398 31.2853 31.8702C31.9115 31.0954 32.759 30.5986 33.7236 30.3778C36.7316 29.6582 38.8295 31.1546 39.1697 33.7078C39.3327 34.8217 39.226 35.0406 39.1093 35.0406ZM44.3683 33.5816C44.0924 30.8489 43.0153 28.7158 41.2495 27.4086C39.3691 26.0108 36.7074 25.5652 33.5563 26.1172C29.6061 26.7876 27.2344 29.5516 26.6908 34.1217C26.0223 39.585 26.9404 43.7017 29.3545 46.0301C31.1745 47.7907 33.8665 48.4906 37.1403 48.0569C41.8092 47.4141 43.9093 44.9043 43.9093 43.3172C43.9093 42.1501 43.1884 41.2312 42.1293 41.0913C41.5234 40.9731 41.0119 41.0913 39.8804 42.0831C38.2496 43.4749 36.359 44.0349 34.6839 43.6188C33.4074 43.3015 32.4108 42.4398 31.9598 41.2589C31.9598 41.2589 31.7584 40.4781 31.7705 40.5648C31.6336 39.861 31.5712 39.1631 32.0141 38.8791L32.133 38.8004H42.3891C43.3354 38.8004 43.8146 38.68 44.0904 38.3883C44.6542 37.7751 44.6099 36.0244 44.3683 33.5816Z" fill="var(--fill-0, white)" id="Vector_16"/>
<path d="M53.6661 19.1297C52.8547 18.8063 51.9385 18.8932 51.1353 19.3623C50.3621 19.8099 50.04 20.492 50.04 21.7243V45.671C50.04 45.671 50.1748 46.5267 50.189 46.5642C50.3621 47.1615 50.8131 47.6702 51.4392 47.9482C52.1338 48.2636 52.9352 48.2577 53.6519 47.9285C54.5439 47.5499 55.0693 46.6766 55.0693 45.5941V21.602C55.0693 21.602 54.9144 20.4428 54.9144 20.4211C54.7713 19.8651 54.3022 19.384 53.6661 19.1297Z" fill="var(--fill-0, white)" id="Vector_17"/>
<path d="M73.0185 43.4533C69.6319 43.4533 69.0923 40.5098 68.9856 38.2878C68.9795 38.2818 68.9413 36.9865 68.9413 36.9865C68.9413 36.9865 68.9795 36.0244 68.9795 35.9869C69.199 32.1424 70.0105 30.6263 72.0822 30.2044C73.4734 29.8888 74.5366 30.0426 75.3339 30.6716C76.5318 31.616 77.0592 33.6151 77.011 36.951C76.9767 40.8567 76.2822 43.4533 73.0185 43.4533ZM73.2702 25.8707C71.001 25.4173 69.0602 25.7979 67.1938 27.0359C67.1938 27.0359 66.9843 27.2017 66.9038 27.2489L66.7367 27.3318L66.2253 27.5566L66.0803 26.9946L65.9575 26.7915L65.9152 26.6654L65.9012 26.6279C65.9012 26.6279 65.7764 26.4643 65.7581 26.4386C65.2226 25.6224 63.7669 25.2478 62.4542 25.9813C61.8119 26.338 61.4435 26.8408 61.4435 28.3412V51.8444C61.4435 53.1318 61.8562 53.9321 62.7582 54.3541C63.5194 54.7288 64.375 54.7583 65.1099 54.4488C65.7341 54.1806 66.193 53.7075 66.3642 53.1318L66.5152 52.1242V48.0569L66.4709 47.4023L66.489 47.2092L66.5152 47.1165L66.7629 46.3417L67.5139 46.8306C67.5139 46.8306 67.7031 46.9529 67.7836 47.0356L68.0092 47.1815C68.0112 47.1835 68.2708 47.3314 68.2708 47.3314C68.2749 47.3314 68.5125 47.4457 68.5125 47.4457C70.526 48.3763 73.2198 48.2678 75.3882 47.1737C78.1183 45.7778 79.4673 43.3015 79.7794 39.1435C80.4317 30.8332 78.4787 26.8625 73.2702 25.8707Z" fill="var(--fill-0, white)" id="Vector_18"/>
<path d="M83.7925 45.2927H84.0723C84.3 45.2927 84.5134 45.2808 84.5134 45.0305C84.5134 44.8057 84.318 44.782 84.1429 44.782H83.7925V45.2927ZM83.563 44.5809H84.163C84.5556 44.5809 84.7388 44.721 84.7388 45.0403C84.7388 45.3282 84.5516 45.4484 84.306 45.4741L84.7792 46.1819H84.5315L84.0845 45.4938H83.7925V46.1819H83.563V44.5809ZM84.0926 46.5526C84.755 46.5526 85.2885 46.0419 85.2885 45.3657C85.2885 44.7011 84.755 44.1886 84.0926 44.1886C83.4281 44.1886 82.8945 44.7011 82.8945 45.3794C82.8945 46.0419 83.4281 46.5526 84.0926 46.5526ZM84.0926 43.9895C84.8658 43.9895 85.516 44.5849 85.516 45.3657C85.516 46.1602 84.8658 46.7536 84.0926 46.7536C83.3175 46.7536 82.6691 46.1602 82.6691 45.3794C82.6691 44.5849 83.3175 43.9895 84.0926 43.9895Z" fill="var(--fill-0, white)" id="Vector_19"/>
</g>
<defs>
<clipPath id="clip0_0_8">
<rect fill="white" height="58.5833" width="122.616"/>
</clipPath>
</defs>
</svg>