<?xml version="1.0" encoding="utf-8"?>
<svg xmlns="http://www.w3.org/2000/svg" fill="none" height="100%" overflow="visible" preserveAspectRatio="none" style="display: block;" viewBox="0 0 7.58486 8.65983" width="100%">
<path d="M3.98887 8.65983C3.16309 8.65983 2.45189 8.4834 1.85529 8.13053C1.26232 7.77402 0.803958 7.27382 0.480192 6.62993C0.160064 5.98239 0 5.22391 0 4.35447C0 3.49595 0.160064 2.73928 0.480192 2.08447C0.803958 1.42966 1.25505 0.918548 1.83346 0.551128C2.41551 0.183708 3.09578 0 3.87428 0C4.34719 0 4.80556 0.0782127 5.24938 0.234639C5.69319 0.391065 6.09153 0.636619 6.4444 0.971299C6.79727 1.30598 7.07556 1.7407 7.27928 2.27546C7.483 2.80658 7.58486 3.45229 7.58486 4.2126V4.79101H0.92219V3.5687H5.98603C5.98603 3.13944 5.89873 2.75929 5.72411 2.42824C5.5495 2.09356 5.30394 1.82982 4.98745 1.63702C4.6746 1.44421 4.30718 1.34781 3.88519 1.34781C3.42683 1.34781 3.02666 1.46059 2.68471 1.68613C2.34639 1.90804 2.08447 2.19906 1.89894 2.55921C1.71705 2.91571 1.62611 3.30314 1.62611 3.72149V4.67642C1.62611 5.23664 1.72433 5.71319 1.92077 6.10608C2.12085 6.49896 2.39914 6.79908 2.75565 7.00644C3.11215 7.21016 3.52868 7.31202 4.00524 7.31202C4.31445 7.31202 4.59638 7.26836 4.85103 7.18106C5.10568 7.09011 5.32577 6.95551 5.5113 6.77726C5.69683 6.599 5.8387 6.37892 5.93692 6.11699L7.48118 6.39529C7.35749 6.85002 7.13558 7.24836 6.81545 7.59031C6.49896 7.92863 6.10062 8.19237 5.62043 8.38154C5.14388 8.56707 4.60003 8.65983 3.98887 8.65983Z" fill="var(--fill-0, white)" id="Vector"/>
</svg>