<?xml version="1.0" encoding="utf-8"?>
<svg xmlns="http://www.w3.org/2000/svg" fill="none" height="100%" overflow="visible" preserveAspectRatio="none" style="display: block;" viewBox="0 0 30.5955 31.7044" width="100%">
<path d="M15.9246 18.8441V14.5128H30.3813C30.5226 15.2677 30.5955 16.1606 30.5955 17.1272C30.5955 20.3768 29.7156 24.3951 26.8799 27.2581C24.1217 30.1579 20.5976 31.7044 15.9292 31.7044C7.27618 31.7044 0 24.5884 0 15.8522C0 7.116 7.27618 0 15.9292 0C20.7162 0 24.1263 1.89637 26.6885 4.3681L23.6613 7.4244C21.824 5.68452 19.3348 4.33128 15.9246 4.33128C9.60584 4.33128 4.66387 9.47266 4.66387 15.8522C4.66387 22.2318 9.60584 27.3731 15.9246 27.3731C20.0232 27.3731 22.3574 25.7115 23.8528 24.2018C25.0655 22.9774 25.8633 21.2283 26.1779 18.8395L15.9246 18.8441Z" fill="var(--fill-0, white)" id="Vector"/>
</svg>